<?xml version="1.0" encoding="utf-8" standalone="no"?>
<!DOCTYPE svg PUBLIC "-//W3C//DTD SVG 1.1//EN"
  "http://www.w3.org/Graphics/SVG/1.1/DTD/svg11.dtd">
<!-- Created with matplotlib (http://matplotlib.org/) -->
<svg height="288pt" version="1.1" viewBox="0 0 864 288" width="864pt" xmlns="http://www.w3.org/2000/svg" xmlns:xlink="http://www.w3.org/1999/xlink">
 <defs>
  <style type="text/css">
*{stroke-linecap:butt;stroke-linejoin:round;}
  </style>
 </defs>
 <g id="figure_1">
  <g id="patch_1">
   <path d="M 0 288 
L 864 288 
L 864 0 
L 0 0 
z
" style="fill:#ffffff;"/>
  </g>
  <g id="axes_1">
   <g id="patch_2">
    <path d="M 46.55 246.2 
L 846.8875 246.2 
L 846.8875 44.1952 
L 46.55 44.1952 
z
" style="fill:#ffffff;"/>
   </g>
   <g id="PolyCollection_1">
    <defs>
     <path d="M 46.55 -134.961851 
L 46.55 -118.254442 
L 70.089338 -200.905285 
L 93.628676 -187.572239 
L 117.168015 -56.409712 
L 140.707353 -212.933639 
L 164.246691 -88.57458 
L 187.786029 -222.403321 
L 211.325368 -209.272003 
L 234.864706 -230.107269 
L 258.404044 -158.712891 
L 281.943382 -157.04451 
L 305.482721 -207.351693 
L 329.022059 -228.345543 
L 352.561397 -216.928092 
L 376.100735 -159.395344 
L 399.640074 -225.823657 
L 423.179412 -233.06766 
L 446.71875 -149.665918 
L 470.258088 -217.688607 
L 493.797426 -233.456408 
L 517.336765 -219.586867 
L 540.876103 -186.247882 
L 564.415441 -232.493077 
L 587.954779 -231.486056 
L 611.494118 -195.806159 
L 635.033456 -184.054652 
L 658.572794 -233.955523 
L 682.112132 -204.317773 
L 705.651471 -98.874462 
L 729.190809 -232.403946 
L 752.730147 -232.04218 
L 776.269485 -147.321575 
L 799.808824 -116.797506 
L 823.348162 -216.718308 
L 846.8875 -218.341269 
L 846.8875 -225.067928 
L 846.8875 -225.067928 
L 823.348162 -221.586666 
L 799.808824 -129.966424 
L 776.269485 -153.342931 
L 752.730147 -233.645572 
L 729.190809 -233.327238 
L 705.651471 -106.687297 
L 682.112132 -208.728154 
L 658.572794 -233.993702 
L 635.033456 -189.779442 
L 611.494118 -200.706591 
L 587.954779 -233.525428 
L 564.415441 -233.706616 
L 540.876103 -193.624099 
L 517.336765 -224.175139 
L 493.797426 -234.003987 
L 470.258088 -223.95991 
L 446.71875 -161.671481 
L 423.179412 -233.469089 
L 399.640074 -230.604148 
L 376.100735 -172.522931 
L 352.561397 -222.006598 
L 329.022059 -230.875904 
L 305.482721 -214.483892 
L 281.943382 -170.289116 
L 258.404044 -166.870764 
L 234.864706 -232.694922 
L 211.325368 -217.363487 
L 187.786029 -226.211316 
L 164.246691 -95.725314 
L 140.707353 -218.397404 
L 117.168015 -65.91462 
L 93.628676 -195.977849 
L 70.089338 -209.44073 
L 46.55 -134.961851 
z
" id="me72c15191e" style="stroke:#1f77b4;stroke-opacity:0.2;"/>
    </defs>
    <g clip-path="url(#p7c3aca391d)">
     <use style="fill:#1f77b4;fill-opacity:0.2;stroke:#1f77b4;stroke-opacity:0.2;" x="0" xlink:href="#me72c15191e" y="288"/>
    </g>
   </g>
   <g id="PolyCollection_2">
    <defs>
     <path d="M 46.55 -123.989534 
L 46.55 -108.520744 
L 70.089338 -215.432049 
L 93.628676 -232.82041 
L 117.168015 -121.120771 
L 140.707353 -117.701063 
L 164.246691 -50.982036 
L 187.786029 -109.421943 
L 211.325368 -109.997475 
L 234.864706 -152.434578 
L 258.404044 -163.314687 
L 281.943382 -89.572686 
L 305.482721 -210.954412 
L 329.022059 -228.797919 
L 352.561397 -225.921964 
L 376.100735 -192.848582 
L 399.640074 -228.315533 
L 423.179412 -230.578276 
L 446.71875 -171.787592 
L 470.258088 -213.527877 
L 493.797426 -233.665232 
L 517.336765 -228.940248 
L 540.876103 -149.598366 
L 564.415441 -232.943941 
L 587.954779 -234.039358 
L 611.494118 -225.745589 
L 635.033456 -221.058902 
L 658.572794 -234.031849 
L 682.112132 -233.710358 
L 705.651471 -177.93397 
L 729.190809 -231.822475 
L 752.730147 -233.982108 
L 776.269485 -216.824371 
L 799.808824 -194.201958 
L 823.348162 -233.454864 
L 846.8875 -233.431966 
L 846.8875 -234.04043 
L 846.8875 -234.04043 
L 823.348162 -234.039143 
L 799.808824 -205.823667 
L 776.269485 -223.697051 
L 752.730147 -234.04043 
L 729.190809 -233.874834 
L 705.651471 -189.255837 
L 682.112132 -234.622764 
L 658.572794 -234.041502 
L 635.033456 -226.440133 
L 611.494118 -228.675112 
L 587.954779 -234.04043 
L 564.415441 -233.975912 
L 540.876103 -159.562291 
L 517.336765 -231.667255 
L 493.797426 -234.031639 
L 470.258088 -220.03697 
L 446.71875 -179.854372 
L 423.179412 -233.64502 
L 399.640074 -232.444751 
L 376.100735 -206.43159 
L 352.561397 -229.732752 
L 329.022059 -232.76874 
L 305.482721 -218.131908 
L 281.943382 -102.467624 
L 258.404044 -171.151321 
L 234.864706 -165.153435 
L 211.325368 -119.606259 
L 187.786029 -123.516543 
L 164.246691 -62.098467 
L 140.707353 -126.16745 
L 117.168015 -135.725255 
L 93.628676 -233.951245 
L 70.089338 -221.540275 
L 46.55 -123.989534 
z
" id="m07c1c94e76" style="stroke:#ff7f0e;stroke-opacity:0.2;"/>
    </defs>
    <g clip-path="url(#p7c3aca391d)">
     <use style="fill:#ff7f0e;fill-opacity:0.2;stroke:#ff7f0e;stroke-opacity:0.2;" x="0" xlink:href="#m07c1c94e76" y="288"/>
    </g>
   </g>
   <g id="matplotlib.axis_1">
    <g id="xtick_1">
     <g id="line2d_1">
      <defs>
       <path d="M 0 0 
L 0 3.5 
" id="m5974dee245" style="stroke:#000000;stroke-width:0.8;"/>
      </defs>
      <g>
       <use style="stroke:#000000;stroke-width:0.8;" x="140.707353" xlink:href="#m5974dee245" y="246.2"/>
      </g>
     </g>
     <g id="text_1">
      <text style="font-family:DejaVu Sans;font-size:10px;font-style:normal;font-weight:normal;text-anchor:middle;" transform="rotate(-0, 140.707353, 260.798437)" x="140.707353" y="260.798437">5</text>
     </g>
    </g>
    <g id="xtick_2">
     <g id="line2d_2">
      <g>
       <use style="stroke:#000000;stroke-width:0.8;" x="258.404044" xlink:href="#m5974dee245" y="246.2"/>
      </g>
     </g>
     <g id="text_2">
      <text style="font-family:DejaVu Sans;font-size:10px;font-style:normal;font-weight:normal;text-anchor:middle;" transform="rotate(-0, 258.404044, 260.798437)" x="258.404044" y="260.798437">10</text>
     </g>
    </g>
    <g id="xtick_3">
     <g id="line2d_3">
      <g>
       <use style="stroke:#000000;stroke-width:0.8;" x="376.100735" xlink:href="#m5974dee245" y="246.2"/>
      </g>
     </g>
     <g id="text_3">
      <text style="font-family:DejaVu Sans;font-size:10px;font-style:normal;font-weight:normal;text-anchor:middle;" transform="rotate(-0, 376.100735, 260.798437)" x="376.100735" y="260.798437">15</text>
     </g>
    </g>
    <g id="xtick_4">
     <g id="line2d_4">
      <g>
       <use style="stroke:#000000;stroke-width:0.8;" x="493.797426" xlink:href="#m5974dee245" y="246.2"/>
      </g>
     </g>
     <g id="text_4">
      <text style="font-family:DejaVu Sans;font-size:10px;font-style:normal;font-weight:normal;text-anchor:middle;" transform="rotate(-0, 493.797426, 260.798437)" x="493.797426" y="260.798437">20</text>
     </g>
    </g>
    <g id="xtick_5">
     <g id="line2d_5">
      <g>
       <use style="stroke:#000000;stroke-width:0.8;" x="611.494118" xlink:href="#m5974dee245" y="246.2"/>
      </g>
     </g>
     <g id="text_5">
      <text style="font-family:DejaVu Sans;font-size:10px;font-style:normal;font-weight:normal;text-anchor:middle;" transform="rotate(-0, 611.494118, 260.798437)" x="611.494118" y="260.798437">25</text>
     </g>
    </g>
    <g id="xtick_6">
     <g id="line2d_6">
      <g>
       <use style="stroke:#000000;stroke-width:0.8;" x="729.190809" xlink:href="#m5974dee245" y="246.2"/>
      </g>
     </g>
     <g id="text_6">
      <text style="font-family:DejaVu Sans;font-size:10px;font-style:normal;font-weight:normal;text-anchor:middle;" transform="rotate(-0, 729.190809, 260.798437)" x="729.190809" y="260.798437">30</text>
     </g>
    </g>
    <g id="xtick_7">
     <g id="line2d_7">
      <g>
       <use style="stroke:#000000;stroke-width:0.8;" x="846.8875" xlink:href="#m5974dee245" y="246.2"/>
      </g>
     </g>
     <g id="text_7">
      <text style="font-family:DejaVu Sans;font-size:10px;font-style:normal;font-weight:normal;text-anchor:middle;" transform="rotate(-0, 846.8875, 260.798437)" x="846.8875" y="260.798437">35</text>
     </g>
    </g>
    <g id="text_8">
     <text style="font-family:DejaVu Sans;font-size:10px;font-style:normal;font-weight:normal;text-anchor:middle;" transform="rotate(-0, 446.71875, 274.476562)" x="446.71875" y="274.476562">position</text>
    </g>
   </g>
   <g id="matplotlib.axis_2">
    <g id="ytick_1">
     <g id="line2d_8">
      <defs>
       <path d="M 0 0 
L -3.5 0 
" id="ma91279c3bf" style="stroke:#000000;stroke-width:0.8;"/>
      </defs>
      <g>
       <use style="stroke:#000000;stroke-width:0.8;" x="46.55" xlink:href="#ma91279c3bf" y="225.478573"/>
      </g>
     </g>
     <g id="text_9">
      <text style="font-family:DejaVu Sans;font-size:10px;font-style:normal;font-weight:normal;text-anchor:end;" transform="rotate(-0, 39.55, 229.277791)" x="39.55" y="229.277791">−4</text>
     </g>
    </g>
    <g id="ytick_2">
     <g id="line2d_9">
      <g>
       <use style="stroke:#000000;stroke-width:0.8;" x="46.55" xlink:href="#ma91279c3bf" y="182.598822"/>
      </g>
     </g>
     <g id="text_10">
      <text style="font-family:DejaVu Sans;font-size:10px;font-style:normal;font-weight:normal;text-anchor:end;" transform="rotate(-0, 39.55, 186.398041)" x="39.55" y="186.398041">−3</text>
     </g>
    </g>
    <g id="ytick_3">
     <g id="line2d_10">
      <g>
       <use style="stroke:#000000;stroke-width:0.8;" x="46.55" xlink:href="#ma91279c3bf" y="139.719071"/>
      </g>
     </g>
     <g id="text_11">
      <text style="font-family:DejaVu Sans;font-size:10px;font-style:normal;font-weight:normal;text-anchor:end;" transform="rotate(-0, 39.55, 143.51829)" x="39.55" y="143.51829">−2</text>
     </g>
    </g>
    <g id="ytick_4">
     <g id="line2d_11">
      <g>
       <use style="stroke:#000000;stroke-width:0.8;" x="46.55" xlink:href="#ma91279c3bf" y="96.839321"/>
      </g>
     </g>
     <g id="text_12">
      <text style="font-family:DejaVu Sans;font-size:10px;font-style:normal;font-weight:normal;text-anchor:end;" transform="rotate(-0, 39.55, 100.63854)" x="39.55" y="100.63854">−1</text>
     </g>
    </g>
    <g id="ytick_5">
     <g id="line2d_12">
      <g>
       <use style="stroke:#000000;stroke-width:0.8;" x="46.55" xlink:href="#ma91279c3bf" y="53.95957"/>
      </g>
     </g>
     <g id="text_13">
      <text style="font-family:DejaVu Sans;font-size:10px;font-style:normal;font-weight:normal;text-anchor:end;" transform="rotate(-0, 39.55, 57.758789)" x="39.55" y="57.758789">0</text>
     </g>
    </g>
    <g id="text_14">
     <text style="font-family:DejaVu Sans;font-size:10px;font-style:normal;font-weight:normal;text-anchor:middle;" transform="rotate(-90, 18.728125, 145.1976)" x="18.728125" y="145.1976">ddg</text>
    </g>
   </g>
   <g id="line2d_13">
    <path clip-path="url(#p7c3aca391d)" d="M 46.55 161.624406 
L 70.089338 82.374051 
L 93.628676 96.439253 
L 117.168015 226.724444 
L 140.707353 72.239637 
L 164.246691 195.939999 
L 187.786029 63.577498 
L 211.325368 74.566721 
L 234.864706 56.41315 
L 258.404044 125.261091 
L 281.943382 124.188669 
L 305.482721 76.965628 
L 329.022059 58.469448 
L 352.561397 68.551978 
L 376.100735 121.902321 
L 399.640074 59.569099 
L 423.179412 54.727332 
L 446.71875 132.532425 
L 470.258088 67.037465 
L 493.797426 54.189191 
L 517.336765 66.073957 
L 540.876103 98.087122 
L 564.415441 54.747914 
L 587.954779 55.378247 
L 611.494118 89.751298 
L 635.033456 100.874305 
L 658.572794 54.024533 
L 682.112132 81.444418 
L 705.651471 185.130442 
L 729.190809 55.07916 
L 752.730147 55.095026 
L 776.269485 137.590092 
L 799.808824 164.651502 
L 823.348162 68.836485 
L 846.8875 66.261985 
" style="fill:none;stroke:#1f77b4;stroke-linecap:square;stroke-width:1.5;"/>
   </g>
   <g id="line2d_14">
    <path clip-path="url(#p7c3aca391d)" d="M 46.55 172.088352 
L 70.089338 69.495118 
L 93.628676 54.540591 
L 117.168015 159.1198 
L 140.707353 166.189385 
L 164.246691 231.197874 
L 187.786029 171.748744 
L 211.325368 173.481515 
L 234.864706 129.314085 
L 258.404044 120.741995 
L 281.943382 192.104834 
L 305.482721 73.284402 
L 329.022059 57.102441 
L 352.561397 60.089016 
L 376.100735 88.479699 
L 399.640074 57.538314 
L 423.179412 55.722786 
L 446.71875 111.860097 
L 470.258088 71.117474 
L 493.797426 54.093784 
L 517.336765 57.510228 
L 540.876103 133.791375 
L 564.415441 54.434678 
L 587.954779 53.959999 
L 611.494118 60.735428 
L 635.033456 64.112423 
L 658.572794 53.962143 
L 682.112132 53.770899 
L 705.651471 104.427321 
L 729.190809 54.948377 
L 752.730147 53.979295 
L 776.269485 67.608195 
L 799.808824 87.868448 
L 823.348162 54.161963 
L 846.8875 54.16282 
" style="fill:none;stroke:#ff7f0e;stroke-linecap:square;stroke-width:1.5;"/>
   </g>
   <g id="line2d_15"/>
   <g id="line2d_16"/>
   <g id="line2d_17"/>
   <g id="patch_3">
    <path d="M 46.55 246.2 
L 46.55 44.1952 
" style="fill:none;stroke:#000000;stroke-linecap:square;stroke-linejoin:miter;stroke-width:0.8;"/>
   </g>
   <g id="patch_4">
    <path d="M 846.8875 246.2 
L 846.8875 44.1952 
" style="fill:none;stroke:#000000;stroke-linecap:square;stroke-linejoin:miter;stroke-width:0.8;"/>
   </g>
   <g id="patch_5">
    <path d="M 46.55 246.2 
L 846.8875 246.2 
" style="fill:none;stroke:#000000;stroke-linecap:square;stroke-linejoin:miter;stroke-width:0.8;"/>
   </g>
   <g id="patch_6">
    <path d="M 46.55 44.1952 
L 846.8875 44.1952 
" style="fill:none;stroke:#000000;stroke-linecap:square;stroke-linejoin:miter;stroke-width:0.8;"/>
   </g>
   <g id="legend_1">
    <g id="patch_7">
     <path d="M 750.275 241.2 
L 839.8875 241.2 
Q 841.8875 241.2 841.8875 239.2 
L 841.8875 196.165625 
Q 841.8875 194.165625 839.8875 194.165625 
L 750.275 194.165625 
Q 748.275 194.165625 748.275 196.165625 
L 748.275 239.2 
Q 748.275 241.2 750.275 241.2 
z
" style="fill:#ffffff;opacity:0.8;stroke:#cccccc;stroke-linejoin:miter;"/>
    </g>
    <g id="line2d_18">
     <path d="M 752.275 202.264062 
L 772.275 202.264062 
" style="fill:none;"/>
    </g>
    <g id="line2d_19"/>
    <g id="text_15">
     <text style="font-family:DejaVu Sans;font-size:10px;font-style:normal;font-weight:normal;text-anchor:start;" transform="rotate(-0, 780.275, 205.764062)" x="780.275" y="205.764062">experiment</text>
    </g>
    <g id="line2d_20">
     <path d="M 752.275 216.942187 
L 772.275 216.942187 
" style="fill:none;stroke:#1f77b4;stroke-linecap:square;stroke-width:1.5;"/>
    </g>
    <g id="line2d_21"/>
    <g id="text_16">
     <text style="font-family:DejaVu Sans;font-size:10px;font-style:normal;font-weight:normal;text-anchor:start;" transform="rotate(-0, 780.275, 220.442187)" x="780.275" y="220.442187">alpha</text>
    </g>
    <g id="line2d_22">
     <path d="M 752.275 231.620313 
L 772.275 231.620313 
" style="fill:none;stroke:#ff7f0e;stroke-linecap:square;stroke-width:1.5;"/>
    </g>
    <g id="line2d_23"/>
    <g id="text_17">
     <text style="font-family:DejaVu Sans;font-size:10px;font-style:normal;font-weight:normal;text-anchor:start;" transform="rotate(-0, 780.275, 235.120313)" x="780.275" y="235.120313">beta</text>
    </g>
   </g>
  </g>
  <g id="axes_2">
   <g id="matplotlib.axis_3">
    <g id="xtick_8">
     <g id="line2d_24">
      <defs>
       <path d="M 0 0 
L 0 -3.5 
" id="m579e59fa75" style="stroke:#000000;stroke-width:0.8;"/>
      </defs>
      <g>
       <use style="stroke:#000000;stroke-width:0.8;" x="46.55" xlink:href="#m579e59fa75" y="44.1952"/>
      </g>
     </g>
     <g id="text_18">
      <text style="font-family:DejaVu Sans;font-size:10px;font-style:normal;font-weight:normal;text-anchor:middle;" transform="rotate(-0, 46.55, 35.115512)" x="46.55" y="35.115512">A</text>
     </g>
    </g>
    <g id="xtick_9">
     <g id="line2d_25">
      <g>
       <use style="stroke:#000000;stroke-width:0.8;" x="70.089338" xlink:href="#m579e59fa75" y="44.1952"/>
      </g>
     </g>
     <g id="text_19">
      <text style="font-family:DejaVu Sans;font-size:10px;font-style:normal;font-weight:normal;text-anchor:middle;" transform="rotate(-0, 70.089338, 35.115512)" x="70.089338" y="35.115512">E</text>
     </g>
    </g>
    <g id="xtick_10">
     <g id="line2d_26">
      <g>
       <use style="stroke:#000000;stroke-width:0.8;" x="93.628676" xlink:href="#m579e59fa75" y="44.1952"/>
      </g>
     </g>
     <g id="text_20">
      <text style="font-family:DejaVu Sans;font-size:10px;font-style:normal;font-weight:normal;text-anchor:middle;" transform="rotate(-0, 93.628676, 35.115512)" x="93.628676" y="35.115512">T</text>
     </g>
    </g>
    <g id="xtick_11">
     <g id="line2d_27">
      <g>
       <use style="stroke:#000000;stroke-width:0.8;" x="117.168015" xlink:href="#m579e59fa75" y="44.1952"/>
      </g>
     </g>
     <g id="text_21">
      <text style="font-family:DejaVu Sans;font-size:10px;font-style:normal;font-weight:normal;text-anchor:middle;" transform="rotate(-0, 117.168015, 35.115512)" x="117.168015" y="35.115512">F</text>
     </g>
    </g>
    <g id="xtick_12">
     <g id="line2d_28">
      <g>
       <use style="stroke:#000000;stroke-width:0.8;" x="140.707353" xlink:href="#m579e59fa75" y="44.1952"/>
      </g>
     </g>
     <g id="text_22">
      <text style="font-family:DejaVu Sans;font-size:10px;font-style:normal;font-weight:normal;text-anchor:middle;" transform="rotate(-0, 140.707353, 35.115512)" x="140.707353" y="35.115512">T</text>
     </g>
    </g>
    <g id="xtick_13">
     <g id="line2d_29">
      <g>
       <use style="stroke:#000000;stroke-width:0.8;" x="164.246691" xlink:href="#m579e59fa75" y="44.1952"/>
      </g>
     </g>
     <g id="text_23">
      <text style="font-family:DejaVu Sans;font-size:10px;font-style:normal;font-weight:normal;text-anchor:middle;" transform="rotate(-0, 164.246691, 35.115512)" x="164.246691" y="35.115512">F</text>
     </g>
    </g>
    <g id="xtick_14">
     <g id="line2d_30">
      <g>
       <use style="stroke:#000000;stroke-width:0.8;" x="187.786029" xlink:href="#m579e59fa75" y="44.1952"/>
      </g>
     </g>
     <g id="text_24">
      <text style="font-family:DejaVu Sans;font-size:10px;font-style:normal;font-weight:normal;text-anchor:middle;" transform="rotate(-0, 187.786029, 35.115512)" x="187.786029" y="35.115512">H</text>
     </g>
    </g>
    <g id="xtick_15">
     <g id="line2d_31">
      <g>
       <use style="stroke:#000000;stroke-width:0.8;" x="211.325368" xlink:href="#m579e59fa75" y="44.1952"/>
      </g>
     </g>
     <g id="text_25">
      <text style="font-family:DejaVu Sans;font-size:10px;font-style:normal;font-weight:normal;text-anchor:middle;" transform="rotate(-0, 211.325368, 35.115512)" x="211.325368" y="35.115512">A</text>
     </g>
    </g>
    <g id="xtick_16">
     <g id="line2d_32">
      <g>
       <use style="stroke:#000000;stroke-width:0.8;" x="234.864706" xlink:href="#m579e59fa75" y="44.1952"/>
      </g>
     </g>
     <g id="text_26">
      <text style="font-family:DejaVu Sans;font-size:10px;font-style:normal;font-weight:normal;text-anchor:middle;" transform="rotate(-0, 234.864706, 35.115512)" x="234.864706" y="35.115512">D</text>
     </g>
    </g>
    <g id="xtick_17">
     <g id="line2d_33">
      <g>
       <use style="stroke:#000000;stroke-width:0.8;" x="258.404044" xlink:href="#m579e59fa75" y="44.1952"/>
      </g>
     </g>
     <g id="text_27">
      <text style="font-family:DejaVu Sans;font-size:10px;font-style:normal;font-weight:normal;text-anchor:middle;" transform="rotate(-0, 258.404044, 35.115512)" x="258.404044" y="35.115512">I</text>
     </g>
    </g>
    <g id="xtick_18">
     <g id="line2d_34">
      <g>
       <use style="stroke:#000000;stroke-width:0.8;" x="281.943382" xlink:href="#m579e59fa75" y="44.1952"/>
      </g>
     </g>
     <g id="text_28">
      <text style="font-family:DejaVu Sans;font-size:10px;font-style:normal;font-weight:normal;text-anchor:middle;" transform="rotate(-0, 281.943382, 35.115512)" x="281.943382" y="35.115512">C</text>
     </g>
    </g>
    <g id="xtick_19">
     <g id="line2d_35">
      <g>
       <use style="stroke:#000000;stroke-width:0.8;" x="305.482721" xlink:href="#m579e59fa75" y="44.1952"/>
      </g>
     </g>
     <g id="text_29">
      <text style="font-family:DejaVu Sans;font-size:10px;font-style:normal;font-weight:normal;text-anchor:middle;" transform="rotate(-0, 305.482721, 35.115512)" x="305.482721" y="35.115512">T</text>
     </g>
    </g>
    <g id="xtick_20">
     <g id="line2d_36">
      <g>
       <use style="stroke:#000000;stroke-width:0.8;" x="329.022059" xlink:href="#m579e59fa75" y="44.1952"/>
      </g>
     </g>
     <g id="text_30">
      <text style="font-family:DejaVu Sans;font-size:10px;font-style:normal;font-weight:normal;text-anchor:middle;" transform="rotate(-0, 329.022059, 35.115512)" x="329.022059" y="35.115512">L</text>
     </g>
    </g>
    <g id="xtick_21">
     <g id="line2d_37">
      <g>
       <use style="stroke:#000000;stroke-width:0.8;" x="352.561397" xlink:href="#m579e59fa75" y="44.1952"/>
      </g>
     </g>
     <g id="text_31">
      <text style="font-family:DejaVu Sans;font-size:10px;font-style:normal;font-weight:normal;text-anchor:middle;" transform="rotate(-0, 352.561397, 35.115512)" x="352.561397" y="35.115512">S</text>
     </g>
    </g>
    <g id="xtick_22">
     <g id="line2d_38">
      <g>
       <use style="stroke:#000000;stroke-width:0.8;" x="376.100735" xlink:href="#m579e59fa75" y="44.1952"/>
      </g>
     </g>
     <g id="text_32">
      <text style="font-family:DejaVu Sans;font-size:10px;font-style:normal;font-weight:normal;text-anchor:middle;" transform="rotate(-0, 376.100735, 35.115512)" x="376.100735" y="35.115512">E</text>
     </g>
    </g>
    <g id="xtick_23">
     <g id="line2d_39">
      <g>
       <use style="stroke:#000000;stroke-width:0.8;" x="399.640074" xlink:href="#m579e59fa75" y="44.1952"/>
      </g>
     </g>
     <g id="text_33">
      <text style="font-family:DejaVu Sans;font-size:10px;font-style:normal;font-weight:normal;text-anchor:middle;" transform="rotate(-0, 399.640074, 35.115512)" x="399.640074" y="35.115512">K</text>
     </g>
    </g>
    <g id="xtick_24">
     <g id="line2d_40">
      <g>
       <use style="stroke:#000000;stroke-width:0.8;" x="423.179412" xlink:href="#m579e59fa75" y="44.1952"/>
      </g>
     </g>
     <g id="text_34">
      <text style="font-family:DejaVu Sans;font-size:10px;font-style:normal;font-weight:normal;text-anchor:middle;" transform="rotate(-0, 423.179412, 35.115512)" x="423.179412" y="35.115512">E</text>
     </g>
    </g>
    <g id="xtick_25">
     <g id="line2d_41">
      <g>
       <use style="stroke:#000000;stroke-width:0.8;" x="446.71875" xlink:href="#m579e59fa75" y="44.1952"/>
      </g>
     </g>
     <g id="text_35">
      <text style="font-family:DejaVu Sans;font-size:10px;font-style:normal;font-weight:normal;text-anchor:middle;" transform="rotate(-0, 446.71875, 35.115512)" x="446.71875" y="35.115512">R</text>
     </g>
    </g>
    <g id="xtick_26">
     <g id="line2d_42">
      <g>
       <use style="stroke:#000000;stroke-width:0.8;" x="470.258088" xlink:href="#m579e59fa75" y="44.1952"/>
      </g>
     </g>
     <g id="text_36">
      <text style="font-family:DejaVu Sans;font-size:10px;font-style:normal;font-weight:normal;text-anchor:middle;" transform="rotate(-0, 470.258088, 35.115512)" x="470.258088" y="35.115512">Q</text>
     </g>
    </g>
    <g id="xtick_27">
     <g id="line2d_43">
      <g>
       <use style="stroke:#000000;stroke-width:0.8;" x="493.797426" xlink:href="#m579e59fa75" y="44.1952"/>
      </g>
     </g>
     <g id="text_37">
      <text style="font-family:DejaVu Sans;font-size:10px;font-style:normal;font-weight:normal;text-anchor:middle;" transform="rotate(-0, 493.797426, 35.115512)" x="493.797426" y="35.115512">I</text>
     </g>
    </g>
    <g id="xtick_28">
     <g id="line2d_44">
      <g>
       <use style="stroke:#000000;stroke-width:0.8;" x="517.336765" xlink:href="#m579e59fa75" y="44.1952"/>
      </g>
     </g>
     <g id="text_38">
      <text style="font-family:DejaVu Sans;font-size:10px;font-style:normal;font-weight:normal;text-anchor:middle;" transform="rotate(-0, 517.336765, 35.115512)" x="517.336765" y="35.115512">K</text>
     </g>
    </g>
    <g id="xtick_29">
     <g id="line2d_45">
      <g>
       <use style="stroke:#000000;stroke-width:0.8;" x="540.876103" xlink:href="#m579e59fa75" y="44.1952"/>
      </g>
     </g>
     <g id="text_39">
      <text style="font-family:DejaVu Sans;font-size:10px;font-style:normal;font-weight:normal;text-anchor:middle;" transform="rotate(-0, 540.876103, 35.115512)" x="540.876103" y="35.115512">K</text>
     </g>
    </g>
    <g id="xtick_30">
     <g id="line2d_46">
      <g>
       <use style="stroke:#000000;stroke-width:0.8;" x="564.415441" xlink:href="#m579e59fa75" y="44.1952"/>
      </g>
     </g>
     <g id="text_40">
      <text style="font-family:DejaVu Sans;font-size:10px;font-style:normal;font-weight:normal;text-anchor:middle;" transform="rotate(-0, 564.415441, 35.115512)" x="564.415441" y="35.115512">Q</text>
     </g>
    </g>
    <g id="xtick_31">
     <g id="line2d_47">
      <g>
       <use style="stroke:#000000;stroke-width:0.8;" x="587.954779" xlink:href="#m579e59fa75" y="44.1952"/>
      </g>
     </g>
     <g id="text_41">
      <text style="font-family:DejaVu Sans;font-size:10px;font-style:normal;font-weight:normal;text-anchor:middle;" transform="rotate(-0, 587.954779, 35.115512)" x="587.954779" y="35.115512">T</text>
     </g>
    </g>
    <g id="xtick_32">
     <g id="line2d_48">
      <g>
       <use style="stroke:#000000;stroke-width:0.8;" x="611.494118" xlink:href="#m579e59fa75" y="44.1952"/>
      </g>
     </g>
     <g id="text_42">
      <text style="font-family:DejaVu Sans;font-size:10px;font-style:normal;font-weight:normal;text-anchor:middle;" transform="rotate(-0, 611.494118, 35.115512)" x="611.494118" y="35.115512">A</text>
     </g>
    </g>
    <g id="xtick_33">
     <g id="line2d_49">
      <g>
       <use style="stroke:#000000;stroke-width:0.8;" x="635.033456" xlink:href="#m579e59fa75" y="44.1952"/>
      </g>
     </g>
     <g id="text_43">
      <text style="font-family:DejaVu Sans;font-size:10px;font-style:normal;font-weight:normal;text-anchor:middle;" transform="rotate(-0, 635.033456, 35.115512)" x="635.033456" y="35.115512">L</text>
     </g>
    </g>
    <g id="xtick_34">
     <g id="line2d_50">
      <g>
       <use style="stroke:#000000;stroke-width:0.8;" x="658.572794" xlink:href="#m579e59fa75" y="44.1952"/>
      </g>
     </g>
     <g id="text_44">
      <text style="font-family:DejaVu Sans;font-size:10px;font-style:normal;font-weight:normal;text-anchor:middle;" transform="rotate(-0, 658.572794, 35.115512)" x="658.572794" y="35.115512">V</text>
     </g>
    </g>
    <g id="xtick_35">
     <g id="line2d_51">
      <g>
       <use style="stroke:#000000;stroke-width:0.8;" x="682.112132" xlink:href="#m579e59fa75" y="44.1952"/>
      </g>
     </g>
     <g id="text_45">
      <text style="font-family:DejaVu Sans;font-size:10px;font-style:normal;font-weight:normal;text-anchor:middle;" transform="rotate(-0, 682.112132, 35.115512)" x="682.112132" y="35.115512">E</text>
     </g>
    </g>
    <g id="xtick_36">
     <g id="line2d_52">
      <g>
       <use style="stroke:#000000;stroke-width:0.8;" x="705.651471" xlink:href="#m579e59fa75" y="44.1952"/>
      </g>
     </g>
     <g id="text_46">
      <text style="font-family:DejaVu Sans;font-size:10px;font-style:normal;font-weight:normal;text-anchor:middle;" transform="rotate(-0, 705.651471, 35.115512)" x="705.651471" y="35.115512">L</text>
     </g>
    </g>
    <g id="xtick_37">
     <g id="line2d_53">
      <g>
       <use style="stroke:#000000;stroke-width:0.8;" x="729.190809" xlink:href="#m579e59fa75" y="44.1952"/>
      </g>
     </g>
     <g id="text_47">
      <text style="font-family:DejaVu Sans;font-size:10px;font-style:normal;font-weight:normal;text-anchor:middle;" transform="rotate(-0, 729.190809, 35.115512)" x="729.190809" y="35.115512">V</text>
     </g>
    </g>
    <g id="xtick_38">
     <g id="line2d_54">
      <g>
       <use style="stroke:#000000;stroke-width:0.8;" x="752.730147" xlink:href="#m579e59fa75" y="44.1952"/>
      </g>
     </g>
     <g id="text_48">
      <text style="font-family:DejaVu Sans;font-size:10px;font-style:normal;font-weight:normal;text-anchor:middle;" transform="rotate(-0, 752.730147, 35.115512)" x="752.730147" y="35.115512">K</text>
     </g>
    </g>
    <g id="xtick_39">
     <g id="line2d_55">
      <g>
       <use style="stroke:#000000;stroke-width:0.8;" x="776.269485" xlink:href="#m579e59fa75" y="44.1952"/>
      </g>
     </g>
     <g id="text_49">
      <text style="font-family:DejaVu Sans;font-size:10px;font-style:normal;font-weight:normal;text-anchor:middle;" transform="rotate(-0, 776.269485, 35.115512)" x="776.269485" y="35.115512">H</text>
     </g>
    </g>
    <g id="xtick_40">
     <g id="line2d_56">
      <g>
       <use style="stroke:#000000;stroke-width:0.8;" x="799.808824" xlink:href="#m579e59fa75" y="44.1952"/>
      </g>
     </g>
     <g id="text_50">
      <text style="font-family:DejaVu Sans;font-size:10px;font-style:normal;font-weight:normal;text-anchor:middle;" transform="rotate(-0, 799.808824, 35.115512)" x="799.808824" y="35.115512">K</text>
     </g>
    </g>
    <g id="xtick_41">
     <g id="line2d_57">
      <g>
       <use style="stroke:#000000;stroke-width:0.8;" x="823.348162" xlink:href="#m579e59fa75" y="44.1952"/>
      </g>
     </g>
     <g id="text_51">
      <text style="font-family:DejaVu Sans;font-size:10px;font-style:normal;font-weight:normal;text-anchor:middle;" transform="rotate(-0, 823.348162, 35.115512)" x="823.348162" y="35.115512">P</text>
     </g>
    </g>
    <g id="xtick_42">
     <g id="line2d_58">
      <g>
       <use style="stroke:#000000;stroke-width:0.8;" x="846.8875" xlink:href="#m579e59fa75" y="44.1952"/>
      </g>
     </g>
     <g id="text_52">
      <text style="font-family:DejaVu Sans;font-size:10px;font-style:normal;font-weight:normal;text-anchor:middle;" transform="rotate(-0, 846.8875, 35.115512)" x="846.8875" y="35.115512">K</text>
     </g>
    </g>
   </g>
   <g id="patch_8">
    <path d="M 46.55 246.2 
L 46.55 44.1952 
" style="fill:none;stroke:#000000;stroke-linecap:square;stroke-linejoin:miter;stroke-width:0.8;"/>
   </g>
   <g id="patch_9">
    <path d="M 846.8875 246.2 
L 846.8875 44.1952 
" style="fill:none;stroke:#000000;stroke-linecap:square;stroke-linejoin:miter;stroke-width:0.8;"/>
   </g>
   <g id="patch_10">
    <path d="M 46.55 246.2 
L 846.8875 246.2 
" style="fill:none;stroke:#000000;stroke-linecap:square;stroke-linejoin:miter;stroke-width:0.8;"/>
   </g>
   <g id="patch_11">
    <path d="M 46.55 44.1952 
L 846.8875 44.1952 
" style="fill:none;stroke:#000000;stroke-linecap:square;stroke-linejoin:miter;stroke-width:0.8;"/>
   </g>
   <g id="text_53">
    <text style="font-family:DejaVu Sans;font-size:12px;font-style:normal;font-weight:normal;text-anchor:middle;" transform="rotate(-0, 446.71875, 22.034816)" x="446.71875" y="22.034816">Per residue ddG</text>
   </g>
  </g>
 </g>
 <defs>
  <clipPath id="p7c3aca391d">
   <rect height="202.0048" width="800.3375" x="46.55" y="44.1952"/>
  </clipPath>
 </defs>
</svg>
