<?xml version="1.0" encoding="utf-8" standalone="no"?>
<!DOCTYPE svg PUBLIC "-//W3C//DTD SVG 1.1//EN"
  "http://www.w3.org/Graphics/SVG/1.1/DTD/svg11.dtd">
<!-- Created with matplotlib (http://matplotlib.org/) -->
<svg height="288pt" version="1.1" viewBox="0 0 864 288" width="864pt" xmlns="http://www.w3.org/2000/svg" xmlns:xlink="http://www.w3.org/1999/xlink">
 <defs>
  <style type="text/css">
*{stroke-linecap:butt;stroke-linejoin:round;}
  </style>
 </defs>
 <g id="figure_1">
  <g id="patch_1">
   <path d="M 0 288 
L 864 288 
L 864 0 
L 0 0 
z
" style="fill:#ffffff;"/>
  </g>
  <g id="axes_1">
   <g id="patch_2">
    <path d="M 46.55 246.2 
L 846.8875 246.2 
L 846.8875 44.1952 
L 46.55 44.1952 
z
" style="fill:#ffffff;"/>
   </g>
   <g id="PolyCollection_1">
    <defs>
     <path d="M 46.55 -135.189762 
L 46.55 -118.219096 
L 70.089338 -201.648613 
L 93.628676 -186.708268 
L 117.168015 -56.326695 
L 140.707353 -213.121836 
L 164.246691 -88.21319 
L 187.786029 -222.395179 
L 211.325368 -208.985075 
L 234.864706 -230.231226 
L 258.404044 -158.589556 
L 281.943382 -156.367905 
L 305.482721 -207.145745 
L 329.022059 -228.269089 
L 352.561397 -216.773764 
L 376.100735 -159.247784 
L 399.640074 -225.991411 
L 423.179412 -233.066101 
L 446.71875 -149.162324 
L 470.258088 -217.906059 
L 493.797426 -233.471264 
L 517.336765 -219.313268 
L 540.876103 -185.876141 
L 564.415441 -232.41497 
L 587.954779 -231.455358 
L 611.494118 -195.712763 
L 635.033456 -184.079626 
L 658.572794 -233.97041 
L 682.112132 -204.416763 
L 705.651471 -98.720261 
L 729.190809 -232.444331 
L 752.730147 -232.103532 
L 776.269485 -147.359506 
L 799.808824 -116.722715 
L 823.348162 -216.763335 
L 846.8875 -218.381664 
L 846.8875 -225.070332 
L 846.8875 -225.070332 
L 823.348162 -221.897948 
L 799.808824 -129.414437 
L 776.269485 -153.332614 
L 752.730147 -233.662502 
L 729.190809 -233.336381 
L 705.651471 -106.73311 
L 682.112132 -208.710519 
L 658.572794 -234.008611 
L 635.033456 -190.072722 
L 611.494118 -200.764663 
L 587.954779 -233.511193 
L 564.415441 -233.732886 
L 540.876103 -193.780813 
L 517.336765 -224.403725 
L 493.797426 -234.018482 
L 470.258088 -223.830611 
L 446.71875 -161.80255 
L 423.179412 -233.481838 
L 399.640074 -230.661517 
L 376.100735 -173.35312 
L 352.561397 -221.77859 
L 329.022059 -230.757233 
L 305.482721 -214.681873 
L 281.943382 -170.583506 
L 258.404044 -166.920248 
L 234.864706 -232.72158 
L 211.325368 -217.474942 
L 187.786029 -226.203303 
L 164.246691 -95.585118 
L 140.707353 -218.330642 
L 117.168015 -66.051545 
L 93.628676 -195.664985 
L 70.089338 -209.917141 
L 46.55 -135.189762 
z
" id="m1b45e49100" style="stroke:#1f77b4;stroke-opacity:0.2;"/>
    </defs>
    <g clip-path="url(#p7a1e4c610e)">
     <use style="fill:#1f77b4;fill-opacity:0.2;stroke:#1f77b4;stroke-opacity:0.2;" x="0" xlink:href="#m1b45e49100" y="288"/>
    </g>
   </g>
   <g id="PolyCollection_2">
    <defs>
     <path d="M 46.55 -123.142691 
L 46.55 -108.273491 
L 70.089338 -215.280415 
L 93.628676 -232.804533 
L 117.168015 -121.285631 
L 140.707353 -117.473489 
L 164.246691 -50.982036 
L 187.786029 -108.996304 
L 211.325368 -110.267795 
L 234.864706 -152.335851 
L 258.404044 -163.204937 
L 281.943382 -89.182287 
L 305.482721 -210.974448 
L 329.022059 -228.761567 
L 352.561397 -226.084589 
L 376.100735 -192.684043 
L 399.640074 -228.284008 
L 423.179412 -230.460886 
L 446.71875 -172.141006 
L 470.258088 -213.518126 
L 493.797426 -233.675543 
L 517.336765 -229.023478 
L 540.876103 -149.305034 
L 564.415441 -232.930848 
L 587.954779 -234.055385 
L 611.494118 -225.750185 
L 635.033456 -221.063959 
L 658.572794 -234.048304 
L 682.112132 -233.768405 
L 705.651471 -177.752608 
L 729.190809 -231.75341 
L 752.730147 -233.998086 
L 776.269485 -216.967389 
L 799.808824 -194.551387 
L 823.348162 -233.456447 
L 846.8875 -233.332004 
L 846.8875 -234.056458 
L 846.8875 -234.056458 
L 823.348162 -234.054742 
L 799.808824 -206.296891 
L 776.269485 -223.531298 
L 752.730147 -234.056464 
L 729.190809 -233.906903 
L 705.651471 -188.728584 
L 682.112132 -234.622764 
L 658.572794 -234.057746 
L 635.033456 -226.419191 
L 611.494118 -228.577507 
L 587.954779 -234.056458 
L 564.415441 -233.988456 
L 540.876103 -158.950128 
L 517.336765 -231.786017 
L 493.797426 -234.047231 
L 470.258088 -220.076343 
L 446.71875 -179.958513 
L 423.179412 -233.592633 
L 399.640074 -232.44903 
L 376.100735 -206.186036 
L 352.561397 -229.592096 
L 329.022059 -232.65206 
L 305.482721 -217.868941 
L 281.943382 -102.515988 
L 258.404044 -171.025251 
L 234.864706 -165.072571 
L 211.325368 -119.000351 
L 187.786029 -123.00041 
L 164.246691 -62.074934 
L 140.707353 -125.735305 
L 117.168015 -136.083969 
L 93.628676 -233.951102 
L 70.089338 -221.48852 
L 46.55 -123.142691 
z
" id="m127e479bea" style="stroke:#ff7f0e;stroke-opacity:0.2;"/>
    </defs>
    <g clip-path="url(#p7a1e4c610e)">
     <use style="fill:#ff7f0e;fill-opacity:0.2;stroke:#ff7f0e;stroke-opacity:0.2;" x="0" xlink:href="#m127e479bea" y="288"/>
    </g>
   </g>
   <g id="matplotlib.axis_1">
    <g id="xtick_1">
     <g id="line2d_1">
      <defs>
       <path d="M 0 0 
L 0 3.5 
" id="m6b6cccc50b" style="stroke:#000000;stroke-width:0.8;"/>
      </defs>
      <g>
       <use style="stroke:#000000;stroke-width:0.8;" x="140.707353" xlink:href="#m6b6cccc50b" y="246.2"/>
      </g>
     </g>
     <g id="text_1">
      <text style="font-family:DejaVu Sans;font-size:10px;font-style:normal;font-weight:normal;text-anchor:middle;" transform="rotate(-0, 140.707353, 260.798437)" x="140.707353" y="260.798437">5</text>
     </g>
    </g>
    <g id="xtick_2">
     <g id="line2d_2">
      <g>
       <use style="stroke:#000000;stroke-width:0.8;" x="258.404044" xlink:href="#m6b6cccc50b" y="246.2"/>
      </g>
     </g>
     <g id="text_2">
      <text style="font-family:DejaVu Sans;font-size:10px;font-style:normal;font-weight:normal;text-anchor:middle;" transform="rotate(-0, 258.404044, 260.798437)" x="258.404044" y="260.798437">10</text>
     </g>
    </g>
    <g id="xtick_3">
     <g id="line2d_3">
      <g>
       <use style="stroke:#000000;stroke-width:0.8;" x="376.100735" xlink:href="#m6b6cccc50b" y="246.2"/>
      </g>
     </g>
     <g id="text_3">
      <text style="font-family:DejaVu Sans;font-size:10px;font-style:normal;font-weight:normal;text-anchor:middle;" transform="rotate(-0, 376.100735, 260.798437)" x="376.100735" y="260.798437">15</text>
     </g>
    </g>
    <g id="xtick_4">
     <g id="line2d_4">
      <g>
       <use style="stroke:#000000;stroke-width:0.8;" x="493.797426" xlink:href="#m6b6cccc50b" y="246.2"/>
      </g>
     </g>
     <g id="text_4">
      <text style="font-family:DejaVu Sans;font-size:10px;font-style:normal;font-weight:normal;text-anchor:middle;" transform="rotate(-0, 493.797426, 260.798437)" x="493.797426" y="260.798437">20</text>
     </g>
    </g>
    <g id="xtick_5">
     <g id="line2d_5">
      <g>
       <use style="stroke:#000000;stroke-width:0.8;" x="611.494118" xlink:href="#m6b6cccc50b" y="246.2"/>
      </g>
     </g>
     <g id="text_5">
      <text style="font-family:DejaVu Sans;font-size:10px;font-style:normal;font-weight:normal;text-anchor:middle;" transform="rotate(-0, 611.494118, 260.798437)" x="611.494118" y="260.798437">25</text>
     </g>
    </g>
    <g id="xtick_6">
     <g id="line2d_6">
      <g>
       <use style="stroke:#000000;stroke-width:0.8;" x="729.190809" xlink:href="#m6b6cccc50b" y="246.2"/>
      </g>
     </g>
     <g id="text_6">
      <text style="font-family:DejaVu Sans;font-size:10px;font-style:normal;font-weight:normal;text-anchor:middle;" transform="rotate(-0, 729.190809, 260.798437)" x="729.190809" y="260.798437">30</text>
     </g>
    </g>
    <g id="xtick_7">
     <g id="line2d_7">
      <g>
       <use style="stroke:#000000;stroke-width:0.8;" x="846.8875" xlink:href="#m6b6cccc50b" y="246.2"/>
      </g>
     </g>
     <g id="text_7">
      <text style="font-family:DejaVu Sans;font-size:10px;font-style:normal;font-weight:normal;text-anchor:middle;" transform="rotate(-0, 846.8875, 260.798437)" x="846.8875" y="260.798437">35</text>
     </g>
    </g>
    <g id="text_8">
     <text style="font-family:DejaVu Sans;font-size:10px;font-style:normal;font-weight:normal;text-anchor:middle;" transform="rotate(-0, 446.71875, 274.476562)" x="446.71875" y="274.476562">position</text>
    </g>
   </g>
   <g id="matplotlib.axis_2">
    <g id="ytick_1">
     <g id="line2d_8">
      <defs>
       <path d="M 0 0 
L -3.5 0 
" id="m36fd980e4c" style="stroke:#000000;stroke-width:0.8;"/>
      </defs>
      <g>
       <use style="stroke:#000000;stroke-width:0.8;" x="46.55" xlink:href="#m36fd980e4c" y="225.611402"/>
      </g>
     </g>
     <g id="text_9">
      <text style="font-family:DejaVu Sans;font-size:10px;font-style:normal;font-weight:normal;text-anchor:end;" transform="rotate(-0, 39.55, 229.41062)" x="39.55" y="229.41062">−4</text>
     </g>
    </g>
    <g id="ytick_2">
     <g id="line2d_9">
      <g>
       <use style="stroke:#000000;stroke-width:0.8;" x="46.55" xlink:href="#m36fd980e4c" y="182.694437"/>
      </g>
     </g>
     <g id="text_10">
      <text style="font-family:DejaVu Sans;font-size:10px;font-style:normal;font-weight:normal;text-anchor:end;" transform="rotate(-0, 39.55, 186.493655)" x="39.55" y="186.493655">−3</text>
     </g>
    </g>
    <g id="ytick_3">
     <g id="line2d_10">
      <g>
       <use style="stroke:#000000;stroke-width:0.8;" x="46.55" xlink:href="#m36fd980e4c" y="139.777472"/>
      </g>
     </g>
     <g id="text_11">
      <text style="font-family:DejaVu Sans;font-size:10px;font-style:normal;font-weight:normal;text-anchor:end;" transform="rotate(-0, 39.55, 143.57669)" x="39.55" y="143.57669">−2</text>
     </g>
    </g>
    <g id="ytick_4">
     <g id="line2d_11">
      <g>
       <use style="stroke:#000000;stroke-width:0.8;" x="46.55" xlink:href="#m36fd980e4c" y="96.860507"/>
      </g>
     </g>
     <g id="text_12">
      <text style="font-family:DejaVu Sans;font-size:10px;font-style:normal;font-weight:normal;text-anchor:end;" transform="rotate(-0, 39.55, 100.659725)" x="39.55" y="100.659725">−1</text>
     </g>
    </g>
    <g id="ytick_5">
     <g id="line2d_12">
      <g>
       <use style="stroke:#000000;stroke-width:0.8;" x="46.55" xlink:href="#m36fd980e4c" y="53.943542"/>
      </g>
     </g>
     <g id="text_13">
      <text style="font-family:DejaVu Sans;font-size:10px;font-style:normal;font-weight:normal;text-anchor:end;" transform="rotate(-0, 39.55, 57.742761)" x="39.55" y="57.742761">0</text>
     </g>
    </g>
    <g id="text_14">
     <text style="font-family:DejaVu Sans;font-size:10px;font-style:normal;font-weight:normal;text-anchor:middle;" transform="rotate(-90, 18.728125, 145.1976)" x="18.728125" y="145.1976">ddg</text>
    </g>
   </g>
   <g id="line2d_13">
    <path clip-path="url(#p7a1e4c610e)" d="M 46.55 161.701818 
L 70.089338 82.382683 
L 93.628676 96.460091 
L 117.168015 226.858354 
L 140.707353 72.239473 
L 164.246691 196.047192 
L 187.786029 63.569817 
L 211.325368 74.568577 
L 234.864706 56.399251 
L 258.404044 125.306944 
L 281.943382 124.233591 
L 305.482721 76.969566 
L 329.022059 58.457334 
L 352.561397 68.548614 
L 376.100735 121.945258 
L 399.640074 59.557939 
L 423.179412 54.71197 
L 446.71875 132.584588 
L 470.258088 67.032787 
L 493.797426 54.173362 
L 517.336765 66.068443 
L 540.876103 98.10939 
L 564.415441 54.73257 
L 587.954779 55.36345 
L 611.494118 89.766332 
L 635.033456 100.898993 
L 658.572794 54.008561 
L 682.112132 81.452243 
L 705.651471 185.228254 
L 729.190809 55.064104 
L 752.730147 55.079983 
L 776.269485 137.646644 
L 799.808824 164.731541 
L 823.348162 68.833368 
L 846.8875 66.256634 
" style="fill:none;stroke:#1f77b4;stroke-linecap:square;stroke-width:1.5;"/>
   </g>
   <g id="line2d_14">
    <path clip-path="url(#p7a1e4c610e)" d="M 46.55 172.174845 
L 70.089338 69.492573 
L 93.628676 54.525067 
L 117.168015 159.195038 
L 140.707353 166.270758 
L 164.246691 231.335666 
L 187.786029 171.834942 
L 211.325368 173.569217 
L 234.864706 129.363456 
L 258.404044 120.783925 
L 281.943382 192.208699 
L 305.482721 73.285145 
L 329.022059 57.089141 
L 352.561397 60.078307 
L 376.100735 88.49363 
L 399.640074 57.525392 
L 423.179412 55.708287 
L 446.71875 111.89432 
L 470.258088 71.116336 
L 493.797426 54.077872 
L 517.336765 57.497281 
L 540.876103 133.84463 
L 564.415441 54.419062 
L 587.954779 53.943971 
L 611.494118 60.725281 
L 635.033456 64.105206 
L 658.572794 53.946117 
L 682.112132 53.754707 
L 705.651471 104.455093 
L 729.190809 54.933207 
L 752.730147 53.963284 
L 776.269485 67.604012 
L 799.808824 87.881849 
L 823.348162 54.14611 
L 846.8875 54.146968 
" style="fill:none;stroke:#ff7f0e;stroke-linecap:square;stroke-width:1.5;"/>
   </g>
   <g id="line2d_15"/>
   <g id="line2d_16"/>
   <g id="line2d_17"/>
   <g id="patch_3">
    <path d="M 46.55 246.2 
L 46.55 44.1952 
" style="fill:none;stroke:#000000;stroke-linecap:square;stroke-linejoin:miter;stroke-width:0.8;"/>
   </g>
   <g id="patch_4">
    <path d="M 846.8875 246.2 
L 846.8875 44.1952 
" style="fill:none;stroke:#000000;stroke-linecap:square;stroke-linejoin:miter;stroke-width:0.8;"/>
   </g>
   <g id="patch_5">
    <path d="M 46.55 246.2 
L 846.8875 246.2 
" style="fill:none;stroke:#000000;stroke-linecap:square;stroke-linejoin:miter;stroke-width:0.8;"/>
   </g>
   <g id="patch_6">
    <path d="M 46.55 44.1952 
L 846.8875 44.1952 
" style="fill:none;stroke:#000000;stroke-linecap:square;stroke-linejoin:miter;stroke-width:0.8;"/>
   </g>
   <g id="legend_1">
    <g id="patch_7">
     <path d="M 750.275 241.2 
L 839.8875 241.2 
Q 841.8875 241.2 841.8875 239.2 
L 841.8875 196.165625 
Q 841.8875 194.165625 839.8875 194.165625 
L 750.275 194.165625 
Q 748.275 194.165625 748.275 196.165625 
L 748.275 239.2 
Q 748.275 241.2 750.275 241.2 
z
" style="fill:#ffffff;opacity:0.8;stroke:#cccccc;stroke-linejoin:miter;"/>
    </g>
    <g id="line2d_18">
     <path d="M 752.275 202.264062 
L 772.275 202.264062 
" style="fill:none;"/>
    </g>
    <g id="line2d_19"/>
    <g id="text_15">
     <text style="font-family:DejaVu Sans;font-size:10px;font-style:normal;font-weight:normal;text-anchor:start;" transform="rotate(-0, 780.275, 205.764062)" x="780.275" y="205.764062">experiment</text>
    </g>
    <g id="line2d_20">
     <path d="M 752.275 216.942187 
L 772.275 216.942187 
" style="fill:none;stroke:#1f77b4;stroke-linecap:square;stroke-width:1.5;"/>
    </g>
    <g id="line2d_21"/>
    <g id="text_16">
     <text style="font-family:DejaVu Sans;font-size:10px;font-style:normal;font-weight:normal;text-anchor:start;" transform="rotate(-0, 780.275, 220.442187)" x="780.275" y="220.442187">alpha</text>
    </g>
    <g id="line2d_22">
     <path d="M 752.275 231.620313 
L 772.275 231.620313 
" style="fill:none;stroke:#ff7f0e;stroke-linecap:square;stroke-width:1.5;"/>
    </g>
    <g id="line2d_23"/>
    <g id="text_17">
     <text style="font-family:DejaVu Sans;font-size:10px;font-style:normal;font-weight:normal;text-anchor:start;" transform="rotate(-0, 780.275, 235.120313)" x="780.275" y="235.120313">beta</text>
    </g>
   </g>
  </g>
  <g id="axes_2">
   <g id="matplotlib.axis_3">
    <g id="xtick_8">
     <g id="line2d_24">
      <defs>
       <path d="M 0 0 
L 0 -3.5 
" id="m37ab023b2c" style="stroke:#000000;stroke-width:0.8;"/>
      </defs>
      <g>
       <use style="stroke:#000000;stroke-width:0.8;" x="46.55" xlink:href="#m37ab023b2c" y="44.1952"/>
      </g>
     </g>
     <g id="text_18">
      <text style="font-family:DejaVu Sans;font-size:10px;font-style:normal;font-weight:normal;text-anchor:middle;" transform="rotate(-0, 46.55, 35.115512)" x="46.55" y="35.115512">A</text>
     </g>
    </g>
    <g id="xtick_9">
     <g id="line2d_25">
      <g>
       <use style="stroke:#000000;stroke-width:0.8;" x="70.089338" xlink:href="#m37ab023b2c" y="44.1952"/>
      </g>
     </g>
     <g id="text_19">
      <text style="font-family:DejaVu Sans;font-size:10px;font-style:normal;font-weight:normal;text-anchor:middle;" transform="rotate(-0, 70.089338, 35.115512)" x="70.089338" y="35.115512">E</text>
     </g>
    </g>
    <g id="xtick_10">
     <g id="line2d_26">
      <g>
       <use style="stroke:#000000;stroke-width:0.8;" x="93.628676" xlink:href="#m37ab023b2c" y="44.1952"/>
      </g>
     </g>
     <g id="text_20">
      <text style="font-family:DejaVu Sans;font-size:10px;font-style:normal;font-weight:normal;text-anchor:middle;" transform="rotate(-0, 93.628676, 35.115512)" x="93.628676" y="35.115512">T</text>
     </g>
    </g>
    <g id="xtick_11">
     <g id="line2d_27">
      <g>
       <use style="stroke:#000000;stroke-width:0.8;" x="117.168015" xlink:href="#m37ab023b2c" y="44.1952"/>
      </g>
     </g>
     <g id="text_21">
      <text style="font-family:DejaVu Sans;font-size:10px;font-style:normal;font-weight:normal;text-anchor:middle;" transform="rotate(-0, 117.168015, 35.115512)" x="117.168015" y="35.115512">F</text>
     </g>
    </g>
    <g id="xtick_12">
     <g id="line2d_28">
      <g>
       <use style="stroke:#000000;stroke-width:0.8;" x="140.707353" xlink:href="#m37ab023b2c" y="44.1952"/>
      </g>
     </g>
     <g id="text_22">
      <text style="font-family:DejaVu Sans;font-size:10px;font-style:normal;font-weight:normal;text-anchor:middle;" transform="rotate(-0, 140.707353, 35.115512)" x="140.707353" y="35.115512">T</text>
     </g>
    </g>
    <g id="xtick_13">
     <g id="line2d_29">
      <g>
       <use style="stroke:#000000;stroke-width:0.8;" x="164.246691" xlink:href="#m37ab023b2c" y="44.1952"/>
      </g>
     </g>
     <g id="text_23">
      <text style="font-family:DejaVu Sans;font-size:10px;font-style:normal;font-weight:normal;text-anchor:middle;" transform="rotate(-0, 164.246691, 35.115512)" x="164.246691" y="35.115512">F</text>
     </g>
    </g>
    <g id="xtick_14">
     <g id="line2d_30">
      <g>
       <use style="stroke:#000000;stroke-width:0.8;" x="187.786029" xlink:href="#m37ab023b2c" y="44.1952"/>
      </g>
     </g>
     <g id="text_24">
      <text style="font-family:DejaVu Sans;font-size:10px;font-style:normal;font-weight:normal;text-anchor:middle;" transform="rotate(-0, 187.786029, 35.115512)" x="187.786029" y="35.115512">H</text>
     </g>
    </g>
    <g id="xtick_15">
     <g id="line2d_31">
      <g>
       <use style="stroke:#000000;stroke-width:0.8;" x="211.325368" xlink:href="#m37ab023b2c" y="44.1952"/>
      </g>
     </g>
     <g id="text_25">
      <text style="font-family:DejaVu Sans;font-size:10px;font-style:normal;font-weight:normal;text-anchor:middle;" transform="rotate(-0, 211.325368, 35.115512)" x="211.325368" y="35.115512">A</text>
     </g>
    </g>
    <g id="xtick_16">
     <g id="line2d_32">
      <g>
       <use style="stroke:#000000;stroke-width:0.8;" x="234.864706" xlink:href="#m37ab023b2c" y="44.1952"/>
      </g>
     </g>
     <g id="text_26">
      <text style="font-family:DejaVu Sans;font-size:10px;font-style:normal;font-weight:normal;text-anchor:middle;" transform="rotate(-0, 234.864706, 35.115512)" x="234.864706" y="35.115512">D</text>
     </g>
    </g>
    <g id="xtick_17">
     <g id="line2d_33">
      <g>
       <use style="stroke:#000000;stroke-width:0.8;" x="258.404044" xlink:href="#m37ab023b2c" y="44.1952"/>
      </g>
     </g>
     <g id="text_27">
      <text style="font-family:DejaVu Sans;font-size:10px;font-style:normal;font-weight:normal;text-anchor:middle;" transform="rotate(-0, 258.404044, 35.115512)" x="258.404044" y="35.115512">I</text>
     </g>
    </g>
    <g id="xtick_18">
     <g id="line2d_34">
      <g>
       <use style="stroke:#000000;stroke-width:0.8;" x="281.943382" xlink:href="#m37ab023b2c" y="44.1952"/>
      </g>
     </g>
     <g id="text_28">
      <text style="font-family:DejaVu Sans;font-size:10px;font-style:normal;font-weight:normal;text-anchor:middle;" transform="rotate(-0, 281.943382, 35.115512)" x="281.943382" y="35.115512">C</text>
     </g>
    </g>
    <g id="xtick_19">
     <g id="line2d_35">
      <g>
       <use style="stroke:#000000;stroke-width:0.8;" x="305.482721" xlink:href="#m37ab023b2c" y="44.1952"/>
      </g>
     </g>
     <g id="text_29">
      <text style="font-family:DejaVu Sans;font-size:10px;font-style:normal;font-weight:normal;text-anchor:middle;" transform="rotate(-0, 305.482721, 35.115512)" x="305.482721" y="35.115512">T</text>
     </g>
    </g>
    <g id="xtick_20">
     <g id="line2d_36">
      <g>
       <use style="stroke:#000000;stroke-width:0.8;" x="329.022059" xlink:href="#m37ab023b2c" y="44.1952"/>
      </g>
     </g>
     <g id="text_30">
      <text style="font-family:DejaVu Sans;font-size:10px;font-style:normal;font-weight:normal;text-anchor:middle;" transform="rotate(-0, 329.022059, 35.115512)" x="329.022059" y="35.115512">L</text>
     </g>
    </g>
    <g id="xtick_21">
     <g id="line2d_37">
      <g>
       <use style="stroke:#000000;stroke-width:0.8;" x="352.561397" xlink:href="#m37ab023b2c" y="44.1952"/>
      </g>
     </g>
     <g id="text_31">
      <text style="font-family:DejaVu Sans;font-size:10px;font-style:normal;font-weight:normal;text-anchor:middle;" transform="rotate(-0, 352.561397, 35.115512)" x="352.561397" y="35.115512">S</text>
     </g>
    </g>
    <g id="xtick_22">
     <g id="line2d_38">
      <g>
       <use style="stroke:#000000;stroke-width:0.8;" x="376.100735" xlink:href="#m37ab023b2c" y="44.1952"/>
      </g>
     </g>
     <g id="text_32">
      <text style="font-family:DejaVu Sans;font-size:10px;font-style:normal;font-weight:normal;text-anchor:middle;" transform="rotate(-0, 376.100735, 35.115512)" x="376.100735" y="35.115512">E</text>
     </g>
    </g>
    <g id="xtick_23">
     <g id="line2d_39">
      <g>
       <use style="stroke:#000000;stroke-width:0.8;" x="399.640074" xlink:href="#m37ab023b2c" y="44.1952"/>
      </g>
     </g>
     <g id="text_33">
      <text style="font-family:DejaVu Sans;font-size:10px;font-style:normal;font-weight:normal;text-anchor:middle;" transform="rotate(-0, 399.640074, 35.115512)" x="399.640074" y="35.115512">K</text>
     </g>
    </g>
    <g id="xtick_24">
     <g id="line2d_40">
      <g>
       <use style="stroke:#000000;stroke-width:0.8;" x="423.179412" xlink:href="#m37ab023b2c" y="44.1952"/>
      </g>
     </g>
     <g id="text_34">
      <text style="font-family:DejaVu Sans;font-size:10px;font-style:normal;font-weight:normal;text-anchor:middle;" transform="rotate(-0, 423.179412, 35.115512)" x="423.179412" y="35.115512">E</text>
     </g>
    </g>
    <g id="xtick_25">
     <g id="line2d_41">
      <g>
       <use style="stroke:#000000;stroke-width:0.8;" x="446.71875" xlink:href="#m37ab023b2c" y="44.1952"/>
      </g>
     </g>
     <g id="text_35">
      <text style="font-family:DejaVu Sans;font-size:10px;font-style:normal;font-weight:normal;text-anchor:middle;" transform="rotate(-0, 446.71875, 35.115512)" x="446.71875" y="35.115512">R</text>
     </g>
    </g>
    <g id="xtick_26">
     <g id="line2d_42">
      <g>
       <use style="stroke:#000000;stroke-width:0.8;" x="470.258088" xlink:href="#m37ab023b2c" y="44.1952"/>
      </g>
     </g>
     <g id="text_36">
      <text style="font-family:DejaVu Sans;font-size:10px;font-style:normal;font-weight:normal;text-anchor:middle;" transform="rotate(-0, 470.258088, 35.115512)" x="470.258088" y="35.115512">Q</text>
     </g>
    </g>
    <g id="xtick_27">
     <g id="line2d_43">
      <g>
       <use style="stroke:#000000;stroke-width:0.8;" x="493.797426" xlink:href="#m37ab023b2c" y="44.1952"/>
      </g>
     </g>
     <g id="text_37">
      <text style="font-family:DejaVu Sans;font-size:10px;font-style:normal;font-weight:normal;text-anchor:middle;" transform="rotate(-0, 493.797426, 35.115512)" x="493.797426" y="35.115512">I</text>
     </g>
    </g>
    <g id="xtick_28">
     <g id="line2d_44">
      <g>
       <use style="stroke:#000000;stroke-width:0.8;" x="517.336765" xlink:href="#m37ab023b2c" y="44.1952"/>
      </g>
     </g>
     <g id="text_38">
      <text style="font-family:DejaVu Sans;font-size:10px;font-style:normal;font-weight:normal;text-anchor:middle;" transform="rotate(-0, 517.336765, 35.115512)" x="517.336765" y="35.115512">K</text>
     </g>
    </g>
    <g id="xtick_29">
     <g id="line2d_45">
      <g>
       <use style="stroke:#000000;stroke-width:0.8;" x="540.876103" xlink:href="#m37ab023b2c" y="44.1952"/>
      </g>
     </g>
     <g id="text_39">
      <text style="font-family:DejaVu Sans;font-size:10px;font-style:normal;font-weight:normal;text-anchor:middle;" transform="rotate(-0, 540.876103, 35.115512)" x="540.876103" y="35.115512">K</text>
     </g>
    </g>
    <g id="xtick_30">
     <g id="line2d_46">
      <g>
       <use style="stroke:#000000;stroke-width:0.8;" x="564.415441" xlink:href="#m37ab023b2c" y="44.1952"/>
      </g>
     </g>
     <g id="text_40">
      <text style="font-family:DejaVu Sans;font-size:10px;font-style:normal;font-weight:normal;text-anchor:middle;" transform="rotate(-0, 564.415441, 35.115512)" x="564.415441" y="35.115512">Q</text>
     </g>
    </g>
    <g id="xtick_31">
     <g id="line2d_47">
      <g>
       <use style="stroke:#000000;stroke-width:0.8;" x="587.954779" xlink:href="#m37ab023b2c" y="44.1952"/>
      </g>
     </g>
     <g id="text_41">
      <text style="font-family:DejaVu Sans;font-size:10px;font-style:normal;font-weight:normal;text-anchor:middle;" transform="rotate(-0, 587.954779, 35.115512)" x="587.954779" y="35.115512">T</text>
     </g>
    </g>
    <g id="xtick_32">
     <g id="line2d_48">
      <g>
       <use style="stroke:#000000;stroke-width:0.8;" x="611.494118" xlink:href="#m37ab023b2c" y="44.1952"/>
      </g>
     </g>
     <g id="text_42">
      <text style="font-family:DejaVu Sans;font-size:10px;font-style:normal;font-weight:normal;text-anchor:middle;" transform="rotate(-0, 611.494118, 35.115512)" x="611.494118" y="35.115512">A</text>
     </g>
    </g>
    <g id="xtick_33">
     <g id="line2d_49">
      <g>
       <use style="stroke:#000000;stroke-width:0.8;" x="635.033456" xlink:href="#m37ab023b2c" y="44.1952"/>
      </g>
     </g>
     <g id="text_43">
      <text style="font-family:DejaVu Sans;font-size:10px;font-style:normal;font-weight:normal;text-anchor:middle;" transform="rotate(-0, 635.033456, 35.115512)" x="635.033456" y="35.115512">L</text>
     </g>
    </g>
    <g id="xtick_34">
     <g id="line2d_50">
      <g>
       <use style="stroke:#000000;stroke-width:0.8;" x="658.572794" xlink:href="#m37ab023b2c" y="44.1952"/>
      </g>
     </g>
     <g id="text_44">
      <text style="font-family:DejaVu Sans;font-size:10px;font-style:normal;font-weight:normal;text-anchor:middle;" transform="rotate(-0, 658.572794, 35.115512)" x="658.572794" y="35.115512">V</text>
     </g>
    </g>
    <g id="xtick_35">
     <g id="line2d_51">
      <g>
       <use style="stroke:#000000;stroke-width:0.8;" x="682.112132" xlink:href="#m37ab023b2c" y="44.1952"/>
      </g>
     </g>
     <g id="text_45">
      <text style="font-family:DejaVu Sans;font-size:10px;font-style:normal;font-weight:normal;text-anchor:middle;" transform="rotate(-0, 682.112132, 35.115512)" x="682.112132" y="35.115512">E</text>
     </g>
    </g>
    <g id="xtick_36">
     <g id="line2d_52">
      <g>
       <use style="stroke:#000000;stroke-width:0.8;" x="705.651471" xlink:href="#m37ab023b2c" y="44.1952"/>
      </g>
     </g>
     <g id="text_46">
      <text style="font-family:DejaVu Sans;font-size:10px;font-style:normal;font-weight:normal;text-anchor:middle;" transform="rotate(-0, 705.651471, 35.115512)" x="705.651471" y="35.115512">L</text>
     </g>
    </g>
    <g id="xtick_37">
     <g id="line2d_53">
      <g>
       <use style="stroke:#000000;stroke-width:0.8;" x="729.190809" xlink:href="#m37ab023b2c" y="44.1952"/>
      </g>
     </g>
     <g id="text_47">
      <text style="font-family:DejaVu Sans;font-size:10px;font-style:normal;font-weight:normal;text-anchor:middle;" transform="rotate(-0, 729.190809, 35.115512)" x="729.190809" y="35.115512">V</text>
     </g>
    </g>
    <g id="xtick_38">
     <g id="line2d_54">
      <g>
       <use style="stroke:#000000;stroke-width:0.8;" x="752.730147" xlink:href="#m37ab023b2c" y="44.1952"/>
      </g>
     </g>
     <g id="text_48">
      <text style="font-family:DejaVu Sans;font-size:10px;font-style:normal;font-weight:normal;text-anchor:middle;" transform="rotate(-0, 752.730147, 35.115512)" x="752.730147" y="35.115512">K</text>
     </g>
    </g>
    <g id="xtick_39">
     <g id="line2d_55">
      <g>
       <use style="stroke:#000000;stroke-width:0.8;" x="776.269485" xlink:href="#m37ab023b2c" y="44.1952"/>
      </g>
     </g>
     <g id="text_49">
      <text style="font-family:DejaVu Sans;font-size:10px;font-style:normal;font-weight:normal;text-anchor:middle;" transform="rotate(-0, 776.269485, 35.115512)" x="776.269485" y="35.115512">H</text>
     </g>
    </g>
    <g id="xtick_40">
     <g id="line2d_56">
      <g>
       <use style="stroke:#000000;stroke-width:0.8;" x="799.808824" xlink:href="#m37ab023b2c" y="44.1952"/>
      </g>
     </g>
     <g id="text_50">
      <text style="font-family:DejaVu Sans;font-size:10px;font-style:normal;font-weight:normal;text-anchor:middle;" transform="rotate(-0, 799.808824, 35.115512)" x="799.808824" y="35.115512">K</text>
     </g>
    </g>
    <g id="xtick_41">
     <g id="line2d_57">
      <g>
       <use style="stroke:#000000;stroke-width:0.8;" x="823.348162" xlink:href="#m37ab023b2c" y="44.1952"/>
      </g>
     </g>
     <g id="text_51">
      <text style="font-family:DejaVu Sans;font-size:10px;font-style:normal;font-weight:normal;text-anchor:middle;" transform="rotate(-0, 823.348162, 35.115512)" x="823.348162" y="35.115512">P</text>
     </g>
    </g>
    <g id="xtick_42">
     <g id="line2d_58">
      <g>
       <use style="stroke:#000000;stroke-width:0.8;" x="846.8875" xlink:href="#m37ab023b2c" y="44.1952"/>
      </g>
     </g>
     <g id="text_52">
      <text style="font-family:DejaVu Sans;font-size:10px;font-style:normal;font-weight:normal;text-anchor:middle;" transform="rotate(-0, 846.8875, 35.115512)" x="846.8875" y="35.115512">K</text>
     </g>
    </g>
   </g>
   <g id="patch_8">
    <path d="M 46.55 246.2 
L 46.55 44.1952 
" style="fill:none;stroke:#000000;stroke-linecap:square;stroke-linejoin:miter;stroke-width:0.8;"/>
   </g>
   <g id="patch_9">
    <path d="M 846.8875 246.2 
L 846.8875 44.1952 
" style="fill:none;stroke:#000000;stroke-linecap:square;stroke-linejoin:miter;stroke-width:0.8;"/>
   </g>
   <g id="patch_10">
    <path d="M 46.55 246.2 
L 846.8875 246.2 
" style="fill:none;stroke:#000000;stroke-linecap:square;stroke-linejoin:miter;stroke-width:0.8;"/>
   </g>
   <g id="patch_11">
    <path d="M 46.55 44.1952 
L 846.8875 44.1952 
" style="fill:none;stroke:#000000;stroke-linecap:square;stroke-linejoin:miter;stroke-width:0.8;"/>
   </g>
   <g id="text_53">
    <text style="font-family:DejaVu Sans;font-size:12px;font-style:normal;font-weight:normal;text-anchor:middle;" transform="rotate(-0, 446.71875, 22.034816)" x="446.71875" y="22.034816">Per residue ddG</text>
   </g>
  </g>
 </g>
 <defs>
  <clipPath id="p7a1e4c610e">
   <rect height="202.0048" width="800.3375" x="46.55" y="44.1952"/>
  </clipPath>
 </defs>
</svg>
