<?xml version="1.0" encoding="utf-8"?>
<!-- Generator: Adobe Illustrator 22.1.0, SVG Export Plug-In . SVG Version: 6.00 Build 0)  -->
<svg version="1.1" id="Layer_1" xmlns="http://www.w3.org/2000/svg" xmlns:xlink="http://www.w3.org/1999/xlink" x="0px" y="0px"
	 viewBox="0 0 864 288" style="enable-background:new 0 0 864 288;" xml:space="preserve">
<style type="text/css">
	.st0{fill:#FFFFFF;}
	.st1{clip-path:url(#SVGID_2_);}
	.st2{fill:#1F77B4;fill-opacity:0.2;stroke:#1F77B4;stroke-linejoin:round;stroke-opacity:0.2;}
	.st3{clip-path:url(#SVGID_4_);}
	.st4{fill:#FF7F0E;fill-opacity:0.2;stroke:#FF7F0E;stroke-linejoin:round;stroke-opacity:0.2;}
	.st5{stroke:#000000;stroke-width:0.8;stroke-linejoin:round;}
	.st6{font-family:'DejaVuSansMonoForPowerline';}
	.st7{font-size:10px;}
	.st8{clip-path:url(#SVGID_6_);fill:none;stroke:#1F77B4;stroke-width:1.5;stroke-linecap:square;stroke-linejoin:round;}
	.st9{clip-path:url(#SVGID_8_);fill:none;stroke:#FF7F0E;stroke-width:1.5;stroke-linecap:square;stroke-linejoin:round;}
	.st10{fill:none;stroke:#000000;stroke-width:0.8;stroke-linecap:square;}
	.st11{opacity:0.8;fill:#FFFFFF;stroke:#CCCCCC;enable-background:new    ;}
	.st12{fill:none;}
	.st13{fill:none;stroke:#1F77B4;stroke-width:1.5;stroke-linecap:square;stroke-linejoin:round;}
	.st14{fill:none;stroke:#FF7F0E;stroke-width:1.5;stroke-linecap:square;stroke-linejoin:round;}
	.st15{font-size:12px;}
</style>
<g id="figure_1">
	<g id="patch_1">
		<path class="st0" d="M0,288h864V0H0V288z"/>
	</g>
	<g id="axes_1">
		<g id="patch_2">
			<path class="st0" d="M46.5,246.2h800.3v-202H46.5V246.2z"/>
		</g>
		<g id="PolyCollection_1">
			<g>
				<defs>
					<rect id="SVGID_1_" x="46.5" y="44.2" width="800.3" height="202"/>
				</defs>
				<clipPath id="SVGID_2_">
					<use xlink:href="#SVGID_1_"  style="overflow:visible;"/>
				</clipPath>
				<g class="st1">
					<g>
						<path id="m1b45e49100" class="st2" d="M46.5,152.8v17l23.5-83.4l23.5,14.9l23.5,130.4l23.5-156.8l23.5,124.9l23.5-134.2
							L211.3,79l23.5-21.2l23.5,71.6l23.5,2.2l23.5-50.8L329,59.7l23.5,11.5l23.5,57.5L399.6,62l23.5-7.1l23.5,83.9l23.5-68.7
							l23.5-15.6l23.5,14.2l23.5,33.4l23.5-46.5l23.5,1l23.5,35.7l23.5,11.6L658.6,54l23.5,29.6l23.5,105.7l23.5-133.7l23.5,0.3
							l23.5,84.7l23.5,30.6l23.5-100l23.5-1.6v-6.7l0,0l-23.5,3.2l-23.5,92.5l-23.5-23.9l-23.5-80.3l-23.5,0.3l-23.5,126.6
							l-23.5-102L658.6,54L635,97.9l-23.5-10.7L588,54.5l-23.5-0.2l-23.5,40l-23.5-30.6L493.8,54l-23.5,10.2l-23.5,62l-23.5-71.7
							l-23.5,2.8l-23.5,57.3l-23.5-48.4l-23.5-9l-23.5,16.1l-23.5,44.1l-23.5,3.7l-23.5-65.8l-23.5,15.2l-23.5-8.7l-23.5,130.6
							L140.7,69.7l-23.5,152.3L93.6,92.3L70.1,78.1L46.5,152.8z"/>
					</g>
				</g>
			</g>
		</g>
		<g id="PolyCollection_2">
			<g>
				<defs>
					<rect id="SVGID_3_" x="46.5" y="44.2" width="800.3" height="202"/>
				</defs>
				<clipPath id="SVGID_4_">
					<use xlink:href="#SVGID_3_"  style="overflow:visible;"/>
				</clipPath>
				<g class="st3">
					<g>
						<path id="m127e479bea" class="st4" d="M46.5,164.9v14.9l23.5-107l23.5-17.5l23.5,111.5l23.5,3.8l23.5,66.5l23.5-58l23.5-1.3
							l23.5-42.1l23.5-10.9l23.5,74L305.5,77L329,59.2l23.5,2.7l23.5,33.4l23.5-35.6l23.5-2.2l23.5,58.3l23.5-41.4l23.5-20.2
							l23.5,4.7l23.5,79.7l23.5-83.6l23.5-1.1l23.5,8.3l23.5,4.7l23.5-13l23.5,0.3l23.5,56l23.5-54l23.5-2.2l23.5,17l23.5,22.4
							l23.5-38.9l23.5,0.1v-0.7l0,0l-23.5,0l-23.5,27.8l-23.5-17.2l-23.5-10.5l-23.5,0.1l-23.5,45.2l-23.5-45.9l-23.5,0.6L635,61.6
							l-23.5-2.2L588,53.9L564.4,54l-23.5,75l-23.5-72.8L493.8,54l-23.5,14L446.7,108l-23.5-53.6l-23.5,1.1l-23.5,26.3l-23.5-23.4
							L329,55.3l-23.5,14.8l-23.5,115.4L258.4,117l-23.5,6L211.3,169l-23.5-4l-23.5,60.9l-23.5-63.7l-23.5-10.3L93.6,54L70.1,66.5
							L46.5,164.9z"/>
					</g>
				</g>
			</g>
		</g>
		<g id="matplotlib.axis_1">
			<g id="xtick_1">
				<g id="line2d_1">
					<g>
						<g>
							<path id="m6b6cccc50b" class="st5" d="M140.7,246.2v3.5"/>
						</g>
					</g>
				</g>
				<g id="text_1">
					<text transform="matrix(1 0 0 1 137.6971 260.7985)" class="st6 st7">5</text>
				</g>
			</g>
			<g id="xtick_2">
				<g id="line2d_2">
					<g>
						<g>
							<path id="m6b6cccc50b_1_" class="st5" d="M258.4,246.2v3.5"/>
						</g>
					</g>
				</g>
				<g id="text_2">
					<text transform="matrix(1 0 0 1 252.3835 260.7985)" class="st6 st7">10</text>
				</g>
			</g>
			<g id="xtick_3">
				<g id="line2d_3">
					<g>
						<g>
							<path id="m6b6cccc50b_2_" class="st5" d="M376.1,246.2v3.5"/>
						</g>
					</g>
				</g>
				<g id="text_3">
					<text transform="matrix(1 0 0 1 370.0802 260.7985)" class="st6 st7">15</text>
				</g>
			</g>
			<g id="xtick_4">
				<g id="line2d_4">
					<g>
						<g>
							<path id="m6b6cccc50b_3_" class="st5" d="M493.8,246.2v3.5"/>
						</g>
					</g>
				</g>
				<g id="text_4">
					<text transform="matrix(1 0 0 1 487.7769 260.7985)" class="st6 st7">20</text>
				</g>
			</g>
			<g id="xtick_5">
				<g id="line2d_5">
					<g>
						<g>
							<path id="m6b6cccc50b_4_" class="st5" d="M611.5,246.2v3.5"/>
						</g>
					</g>
				</g>
				<g id="text_5">
					<text transform="matrix(1 0 0 1 605.4736 260.7985)" class="st6 st7">25</text>
				</g>
			</g>
			<g id="xtick_6">
				<g id="line2d_6">
					<g>
						<g>
							<path id="m6b6cccc50b_5_" class="st5" d="M729.2,246.2v3.5"/>
						</g>
					</g>
				</g>
				<g id="text_6">
					<text transform="matrix(1 0 0 1 723.1703 260.7985)" class="st6 st7">30</text>
				</g>
			</g>
			<g id="xtick_7">
				<g id="line2d_7">
					<g>
						<g>
							<path id="m6b6cccc50b_6_" class="st5" d="M846.9,246.2v3.5"/>
						</g>
					</g>
				</g>
				<g id="text_7">
					<text transform="matrix(1 0 0 1 840.867 260.7985)" class="st6 st7">35</text>
				</g>
			</g>
			<g id="text_8">
				<text transform="matrix(1 0 0 1 422.6367 274.4766)" class="st6 st7">position</text>
			</g>
		</g>
		<g id="matplotlib.axis_2">
			<g id="ytick_1">
				<g id="line2d_8">
					<g>
						<g>
							<path id="m36fd980e4c" class="st5" d="M46.5,225.6H43"/>
						</g>
					</g>
				</g>
				<g id="text_9">
					<text transform="matrix(1 0 0 1 27.509 229.4106)" class="st6 st7">−4</text>
				</g>
			</g>
			<g id="ytick_2">
				<g id="line2d_9">
					<g>
						<g>
							<path id="m36fd980e4c_1_" class="st5" d="M46.5,182.7H43"/>
						</g>
					</g>
				</g>
				<g id="text_10">
					<text transform="matrix(1 0 0 1 27.509 186.4936)" class="st6 st7">−3</text>
				</g>
			</g>
			<g id="ytick_3">
				<g id="line2d_10">
					<g>
						<g>
							<path id="m36fd980e4c_2_" class="st5" d="M46.5,139.8H43"/>
						</g>
					</g>
				</g>
				<g id="text_11">
					<text transform="matrix(1 0 0 1 27.509 143.5766)" class="st6 st7">−2</text>
				</g>
			</g>
			<g id="ytick_4">
				<g id="line2d_11">
					<g>
						<g>
							<path id="m36fd980e4c_3_" class="st5" d="M46.5,96.9H43"/>
						</g>
					</g>
				</g>
				<g id="text_12">
					<text transform="matrix(1 0 0 1 27.509 100.6597)" class="st6 st7">−1</text>
				</g>
			</g>
			<g id="ytick_5">
				<g id="line2d_12">
					<g>
						<g>
							<path id="m36fd980e4c_4_" class="st5" d="M46.5,53.9H43"/>
						</g>
					</g>
				</g>
				<g id="text_13">
					<text transform="matrix(1 0 0 1 33.5295 57.7427)" class="st6 st7">0</text>
				</g>
			</g>
			<g id="text_14">
				<text transform="matrix(6.123234e-17 -1 1 6.123234e-17 18.7281 154.2279)" class="st6 st7">ddg</text>
			</g>
		</g>
		<g id="line2d_13">
			<g>
				<defs>
					<rect id="SVGID_5_" x="46.5" y="44.2" width="800.3" height="202"/>
				</defs>
				<clipPath id="SVGID_6_">
					<use xlink:href="#SVGID_5_"  style="overflow:visible;"/>
				</clipPath>
				<path class="st8" d="M46.5,161.7l23.5-79.3l23.5,14.1l23.5,130.4l23.5-154.6L164.2,196l23.5-132.5l23.5,11l23.5-18.2l23.5,68.9
					l23.5-1.1L305.5,77L329,58.5l23.5,10.1l23.5,53.4l23.5-62.4l23.5-4.8l23.5,77.9L470.3,67l23.5-12.9l23.5,11.9l23.5,32l23.5-43.4
					l23.5,0.6l23.5,34.4l23.5,11.1L658.6,54l23.5,27.4l23.5,103.8l23.5-130.2l23.5,0l23.5,82.6l23.5,27.1l23.5-95.9l23.5-2.6"/>
			</g>
		</g>
		<g id="line2d_14">
			<g>
				<defs>
					<rect id="SVGID_7_" x="46.5" y="44.2" width="800.3" height="202"/>
				</defs>
				<clipPath id="SVGID_8_">
					<use xlink:href="#SVGID_7_"  style="overflow:visible;"/>
				</clipPath>
				<path class="st9" d="M46.5,172.2L70.1,69.5l23.5-15l23.5,104.7l23.5,7.1l23.5,65.1l23.5-59.5l23.5,1.7l23.5-44.2l23.5-8.6
					l23.5,71.4l23.5-118.9L329,57.1l23.5,3l23.5,28.4l23.5-31l23.5-1.8l23.5,56.2l23.5-40.8l23.5-17l23.5,3.4l23.5,76.3l23.5-79.4
					l23.5-0.5l23.5,6.8l23.5,3.4l23.5-10.2l23.5-0.2l23.5,50.7l23.5-49.5l23.5-1l23.5,13.6l23.5,20.3l23.5-33.7l23.5,0"/>
			</g>
		</g>
		<g id="line2d_15">
		</g>
		<g id="line2d_16">
		</g>
		<g id="line2d_17">
		</g>
		<g id="patch_3">
			<path class="st10" d="M46.5,246.2v-202"/>
		</g>
		<g id="patch_4">
			<path class="st10" d="M846.9,246.2v-202"/>
		</g>
		<g id="patch_5">
			<path class="st10" d="M46.5,246.2h800.3"/>
		</g>
		<g id="patch_6">
			<path class="st10" d="M46.5,44.2h800.3"/>
		</g>
		<g id="legend_1">
			<g id="patch_7">
				<path class="st11" d="M750.3,241.3h89.6c1.3,0,2-0.5,2-1.5V207c0-1-0.7-1.5-2-1.5h-89.6c-1.3,0-2,0.5-2,1.5v32.8
					C748.3,240.8,748.9,241.3,750.3,241.3z"/>
			</g>
			<g id="line2d_18">
				<path class="st12" d="M752.3,202.3h20"/>
			</g>
			<g id="line2d_19">
			</g>
			<g id="line2d_20">
				<path class="st13" d="M752.3,216.9h20"/>
			</g>
			<g id="line2d_21">
			</g>
			<g id="text_16">
				<text transform="matrix(1 0 0 1 780.275 220.4422)" class="st6 st7">alpha</text>
			</g>
			<g id="line2d_22">
				<path class="st14" d="M752.3,231.6h20"/>
			</g>
			<g id="line2d_23">
			</g>
			<g id="text_17">
				<text transform="matrix(1 0 0 1 780.275 235.1203)" class="st6 st7">beta</text>
			</g>
		</g>
	</g>
	<g id="axes_2">
		<g id="matplotlib.axis_3">
			<g id="xtick_8">
				<g id="line2d_24">
					<g>
						<g>
							<path id="m37ab023b2c" class="st5" d="M46.5,44.2v-3.5"/>
						</g>
					</g>
				</g>
				<g id="text_18">
					<text transform="matrix(1 0 0 1 43.5397 35.1155)" class="st6 st7">A</text>
				</g>
			</g>
			<g id="xtick_9">
				<g id="line2d_25">
					<g>
						<g>
							<path id="m37ab023b2c_1_" class="st5" d="M70.1,44.2v-3.5"/>
						</g>
					</g>
				</g>
				<g id="text_19">
					<text transform="matrix(1 0 0 1 67.0791 35.1155)" class="st6 st7">E</text>
				</g>
			</g>
			<g id="xtick_10">
				<g id="line2d_26">
					<g>
						<g>
							<path id="m37ab023b2c_2_" class="st5" d="M93.6,44.2v-3.5"/>
						</g>
					</g>
				</g>
				<g id="text_20">
					<text transform="matrix(1 0 0 1 90.6184 35.1155)" class="st6 st7">T</text>
				</g>
			</g>
			<g id="xtick_11">
				<g id="line2d_27">
					<g>
						<g>
							<path id="m37ab023b2c_3_" class="st5" d="M117.2,44.2v-3.5"/>
						</g>
					</g>
				</g>
				<g id="text_21">
					<text transform="matrix(1 0 0 1 114.1578 35.1155)" class="st6 st7">F</text>
				</g>
			</g>
			<g id="xtick_12">
				<g id="line2d_28">
					<g>
						<g>
							<path id="m37ab023b2c_4_" class="st5" d="M140.7,44.2v-3.5"/>
						</g>
					</g>
				</g>
				<g id="text_22">
					<text transform="matrix(1 0 0 1 137.6971 35.1155)" class="st6 st7">T</text>
				</g>
			</g>
			<g id="xtick_13">
				<g id="line2d_29">
					<g>
						<g>
							<path id="m37ab023b2c_5_" class="st5" d="M164.2,44.2v-3.5"/>
						</g>
					</g>
				</g>
				<g id="text_23">
					<text transform="matrix(1 0 0 1 161.2364 35.1155)" class="st6 st7">F</text>
				</g>
			</g>
			<g id="xtick_14">
				<g id="line2d_30">
					<g>
						<g>
							<path id="m37ab023b2c_6_" class="st5" d="M187.8,44.2v-3.5"/>
						</g>
					</g>
				</g>
				<g id="text_24">
					<text transform="matrix(1 0 0 1 184.7758 35.1155)" class="st6 st7">H</text>
				</g>
			</g>
			<g id="xtick_15">
				<g id="line2d_31">
					<g>
						<g>
							<path id="m37ab023b2c_7_" class="st5" d="M211.3,44.2v-3.5"/>
						</g>
					</g>
				</g>
				<g id="text_25">
					<text transform="matrix(1 0 0 1 208.3151 35.1155)" class="st6 st7">A</text>
				</g>
			</g>
			<g id="xtick_16">
				<g id="line2d_32">
					<g>
						<g>
							<path id="m37ab023b2c_8_" class="st5" d="M234.9,44.2v-3.5"/>
						</g>
					</g>
				</g>
				<g id="text_26">
					<text transform="matrix(1 0 0 1 231.8544 35.1155)" class="st6 st7">D</text>
				</g>
			</g>
			<g id="xtick_17">
				<g id="line2d_33">
					<g>
						<g>
							<path id="m37ab023b2c_9_" class="st5" d="M258.4,44.2v-3.5"/>
						</g>
					</g>
				</g>
				<g id="text_27">
					<text transform="matrix(1 0 0 1 255.3938 35.1155)" class="st6 st7">I</text>
				</g>
			</g>
			<g id="xtick_18">
				<g id="line2d_34">
					<g>
						<g>
							<path id="m37ab023b2c_10_" class="st5" d="M281.9,44.2v-3.5"/>
						</g>
					</g>
				</g>
				<g id="text_28">
					<text transform="matrix(1 0 0 1 278.9331 35.1155)" class="st6 st7">C</text>
				</g>
			</g>
			<g id="xtick_19">
				<g id="line2d_35">
					<g>
						<g>
							<path id="m37ab023b2c_11_" class="st5" d="M305.5,44.2v-3.5"/>
						</g>
					</g>
				</g>
				<g id="text_29">
					<text transform="matrix(1 0 0 1 302.4725 35.1155)" class="st6 st7">T</text>
				</g>
			</g>
			<g id="xtick_20">
				<g id="line2d_36">
					<g>
						<g>
							<path id="m37ab023b2c_12_" class="st5" d="M329,44.2v-3.5"/>
						</g>
					</g>
				</g>
				<g id="text_30">
					<text transform="matrix(1 0 0 1 326.0118 35.1155)" class="st6 st7">L</text>
				</g>
			</g>
			<g id="xtick_21">
				<g id="line2d_37">
					<g>
						<g>
							<path id="m37ab023b2c_13_" class="st5" d="M352.6,44.2v-3.5"/>
						</g>
					</g>
				</g>
				<g id="text_31">
					<text transform="matrix(1 0 0 1 349.5511 35.1155)" class="st6 st7">S</text>
				</g>
			</g>
			<g id="xtick_22">
				<g id="line2d_38">
					<g>
						<g>
							<path id="m37ab023b2c_14_" class="st5" d="M376.1,44.2v-3.5"/>
						</g>
					</g>
				</g>
				<g id="text_32">
					<text transform="matrix(1 0 0 1 373.0905 35.1155)" class="st6 st7">E</text>
				</g>
			</g>
			<g id="xtick_23">
				<g id="line2d_39">
					<g>
						<g>
							<path id="m37ab023b2c_15_" class="st5" d="M399.6,44.2v-3.5"/>
						</g>
					</g>
				</g>
				<g id="text_33">
					<text transform="matrix(1 0 0 1 396.6298 35.1155)" class="st6 st7">K</text>
				</g>
			</g>
			<g id="xtick_24">
				<g id="line2d_40">
					<g>
						<g>
							<path id="m37ab023b2c_16_" class="st5" d="M423.2,44.2v-3.5"/>
						</g>
					</g>
				</g>
				<g id="text_34">
					<text transform="matrix(1 0 0 1 420.1692 35.1155)" class="st6 st7">E</text>
				</g>
			</g>
			<g id="xtick_25">
				<g id="line2d_41">
					<g>
						<g>
							<path id="m37ab023b2c_17_" class="st5" d="M446.7,44.2v-3.5"/>
						</g>
					</g>
				</g>
				<g id="text_35">
					<text transform="matrix(1 0 0 1 443.7085 35.1155)" class="st6 st7">R</text>
				</g>
			</g>
			<g id="xtick_26">
				<g id="line2d_42">
					<g>
						<g>
							<path id="m37ab023b2c_18_" class="st5" d="M470.3,44.2v-3.5"/>
						</g>
					</g>
				</g>
				<g id="text_36">
					<text transform="matrix(1 0 0 1 467.2478 35.1155)" class="st6 st7">Q</text>
				</g>
			</g>
			<g id="xtick_27">
				<g id="line2d_43">
					<g>
						<g>
							<path id="m37ab023b2c_19_" class="st5" d="M493.8,44.2v-3.5"/>
						</g>
					</g>
				</g>
				<g id="text_37">
					<text transform="matrix(1 0 0 1 490.7872 35.1155)" class="st6 st7">I</text>
				</g>
			</g>
			<g id="xtick_28">
				<g id="line2d_44">
					<g>
						<g>
							<path id="m37ab023b2c_20_" class="st5" d="M517.3,44.2v-3.5"/>
						</g>
					</g>
				</g>
				<g id="text_38">
					<text transform="matrix(1 0 0 1 514.3265 35.1155)" class="st6 st7">K</text>
				</g>
			</g>
			<g id="xtick_29">
				<g id="line2d_45">
					<g>
						<g>
							<path id="m37ab023b2c_21_" class="st5" d="M540.9,44.2v-3.5"/>
						</g>
					</g>
				</g>
				<g id="text_39">
					<text transform="matrix(1 0 0 1 537.8658 35.1155)" class="st6 st7">K</text>
				</g>
			</g>
			<g id="xtick_30">
				<g id="line2d_46">
					<g>
						<g>
							<path id="m37ab023b2c_22_" class="st5" d="M564.4,44.2v-3.5"/>
						</g>
					</g>
				</g>
				<g id="text_40">
					<text transform="matrix(1 0 0 1 561.4052 35.1155)" class="st6 st7">Q</text>
				</g>
			</g>
			<g id="xtick_31">
				<g id="line2d_47">
					<g>
						<g>
							<path id="m37ab023b2c_23_" class="st5" d="M588,44.2v-3.5"/>
						</g>
					</g>
				</g>
				<g id="text_41">
					<text transform="matrix(1 0 0 1 584.9445 35.1155)" class="st6 st7">T</text>
				</g>
			</g>
			<g id="xtick_32">
				<g id="line2d_48">
					<g>
						<g>
							<path id="m37ab023b2c_24_" class="st5" d="M611.5,44.2v-3.5"/>
						</g>
					</g>
				</g>
				<g id="text_42">
					<text transform="matrix(1 0 0 1 608.4839 35.1155)" class="st6 st7">A</text>
				</g>
			</g>
			<g id="xtick_33">
				<g id="line2d_49">
					<g>
						<g>
							<path id="m37ab023b2c_25_" class="st5" d="M635,44.2v-3.5"/>
						</g>
					</g>
				</g>
				<g id="text_43">
					<text transform="matrix(1 0 0 1 632.0232 35.1155)" class="st6 st7">L</text>
				</g>
			</g>
			<g id="xtick_34">
				<g id="line2d_50">
					<g>
						<g>
							<path id="m37ab023b2c_26_" class="st5" d="M658.6,44.2v-3.5"/>
						</g>
					</g>
				</g>
				<g id="text_44">
					<text transform="matrix(1 0 0 1 655.5626 35.1155)" class="st6 st7">V</text>
				</g>
			</g>
			<g id="xtick_35">
				<g id="line2d_51">
					<g>
						<g>
							<path id="m37ab023b2c_27_" class="st5" d="M682.1,44.2v-3.5"/>
						</g>
					</g>
				</g>
				<g id="text_45">
					<text transform="matrix(1 0 0 1 679.1019 35.1155)" class="st6 st7">E</text>
				</g>
			</g>
			<g id="xtick_36">
				<g id="line2d_52">
					<g>
						<g>
							<path id="m37ab023b2c_28_" class="st5" d="M705.7,44.2v-3.5"/>
						</g>
					</g>
				</g>
				<g id="text_46">
					<text transform="matrix(1 0 0 1 702.6412 35.1155)" class="st6 st7">L</text>
				</g>
			</g>
			<g id="xtick_37">
				<g id="line2d_53">
					<g>
						<g>
							<path id="m37ab023b2c_29_" class="st5" d="M729.2,44.2v-3.5"/>
						</g>
					</g>
				</g>
				<g id="text_47">
					<text transform="matrix(1 0 0 1 726.1805 35.1155)" class="st6 st7">V</text>
				</g>
			</g>
			<g id="xtick_38">
				<g id="line2d_54">
					<g>
						<g>
							<path id="m37ab023b2c_30_" class="st5" d="M752.7,44.2v-3.5"/>
						</g>
					</g>
				</g>
				<g id="text_48">
					<text transform="matrix(1 0 0 1 749.7199 35.1155)" class="st6 st7">K</text>
				</g>
			</g>
			<g id="xtick_39">
				<g id="line2d_55">
					<g>
						<g>
							<path id="m37ab023b2c_31_" class="st5" d="M776.3,44.2v-3.5"/>
						</g>
					</g>
				</g>
				<g id="text_49">
					<text transform="matrix(1 0 0 1 773.2592 35.1155)" class="st6 st7">H</text>
				</g>
			</g>
			<g id="xtick_40">
				<g id="line2d_56">
					<g>
						<g>
							<path id="m37ab023b2c_32_" class="st5" d="M799.8,44.2v-3.5"/>
						</g>
					</g>
				</g>
				<g id="text_50">
					<text transform="matrix(1 0 0 1 796.7986 35.1155)" class="st6 st7">K</text>
				</g>
			</g>
			<g id="xtick_41">
				<g id="line2d_57">
					<g>
						<g>
							<path id="m37ab023b2c_33_" class="st5" d="M823.3,44.2v-3.5"/>
						</g>
					</g>
				</g>
				<g id="text_51">
					<text transform="matrix(1 0 0 1 820.3379 35.1155)" class="st6 st7">P</text>
				</g>
			</g>
			<g id="xtick_42">
				<g id="line2d_58">
					<g>
						<g>
							<path id="m37ab023b2c_34_" class="st5" d="M846.9,44.2v-3.5"/>
						</g>
					</g>
				</g>
				<g id="text_52">
					<text transform="matrix(1 0 0 1 843.8773 35.1155)" class="st6 st7">K</text>
				</g>
			</g>
		</g>
		<g id="patch_8">
			<path class="st10" d="M46.5,246.2v-202"/>
		</g>
		<g id="patch_9">
			<path class="st10" d="M846.9,246.2v-202"/>
		</g>
		<g id="patch_10">
			<path class="st10" d="M46.5,246.2h800.3"/>
		</g>
		<g id="patch_11">
			<path class="st10" d="M46.5,44.2h800.3"/>
		</g>
		<g id="text_53">
			<text transform="matrix(1 0 0 1 392.5342 22.0348)" class="st6 st15">Per residue ddG</text>
		</g>
	</g>
</g>
</svg>
